<svg xmlns="http://www.w3.org/2000/svg" width="28" height="28"><path d="m16.152 14.506 3.594 2.075c.35.202.464.662.267 1.004a.728.728 0 0 1-1.004.272l-3.654-2.11a2.21 2.21 0 1 1-2.092-3.832V5.163c0-.41.342-.742.737-.742.407 0 .737.343.737.742v6.752a2.211 2.211 0 0 1 1.415 2.59ZM14 28c7.732 0 14-6.268 14-14S21.732 0 14 0 0 6.268 0 14s6.268 14 14 14Zm0-1.474c6.918 0 12.526-5.608 12.526-12.526S20.918 1.474 14 1.474 1.474 7.082 1.474 14 7.082 26.526 14 26.526Z" fill="#4a5469" fill-rule="evenodd" data-name="time-svgrepo-com"/></svg>