<svg xmlns="http://www.w3.org/2000/svg" width="20.414" height="31.581" viewBox="-0.25 -0.25 20.414 31.581"><g data-name="Pfad 79180"><path d="M17.465 3.03A10.144 10.144 0 0 0 10.33 0C4.748-.064.113 4.42.002 10a10.214 10.214 0 0 0 4.284 8.522c.327.233.523.609.523 1.004v1.291c0 .877.352 1.672.922 2.253v1.555c0 1.032.493 1.95 1.255 2.534v1.233c0 1.758 1.431 3.189 3.19 3.189 1.758 0 3.189-1.43 3.189-3.19V27.16a3.186 3.186 0 0 0 1.255-2.534v-1.493a3.21 3.21 0 0 0 .985-2.315v-1.29c0-.396.194-.77.52-1.003a10.234 10.234 0 0 0 4.289-8.317c0-2.705-1.047-5.254-2.95-7.177Zm-5.457 25.362c0 1.01-.822 1.832-1.832 1.832a1.834 1.834 0 0 1-1.833-1.832v-.63c.188.034.38.053.577.053h2.511c.197 0 .39-.02.577-.054v.63Zm1.255-3.767c0 1.01-.822 1.833-1.832 1.833h-2.51a1.834 1.834 0 0 1-1.833-1.833v-.729c.298.091.613.14.94.14h4.358c.304 0 .598-.043.877-.122v.711Zm2.074-7.206a2.594 2.594 0 0 0-1.089 2.107v1.291a1.865 1.865 0 0 1-1.862 1.863H8.028a1.882 1.882 0 0 1-1.862-1.863v-1.29c0-.834-.408-1.622-1.092-2.11a8.857 8.857 0 0 1-3.715-7.39c.095-4.803 4.055-8.67 8.85-8.67h.105c4.82.057 8.743 4.027 8.743 8.85a8.874 8.874 0 0 1-3.72 7.212Z" fill="#375752" fill-rule="evenodd"/><path d="M17.465 3.03A10.144 10.144 0 0 0 10.33 0C4.748-.064.113 4.42.002 10a10.214 10.214 0 0 0 4.284 8.522c.327.233.523.609.523 1.004v1.291c0 .877.352 1.672.922 2.253v1.555c0 1.032.493 1.95 1.255 2.534v1.233c0 1.758 1.431 3.189 3.19 3.189 1.758 0 3.189-1.43 3.189-3.19V27.16a3.186 3.186 0 0 0 1.255-2.534v-1.493a3.21 3.21 0 0 0 .985-2.315v-1.29c0-.396.194-.77.52-1.003a10.234 10.234 0 0 0 4.289-8.317c0-2.705-1.047-5.254-2.95-7.177Zm-5.457 25.362c0 1.01-.822 1.832-1.832 1.832a1.834 1.834 0 0 1-1.833-1.832v-.63c.188.034.38.053.577.053h2.511c.197 0 .39-.02.577-.054v.63Zm1.255-3.767c0 1.01-.822 1.833-1.832 1.833h-2.51a1.834 1.834 0 0 1-1.833-1.833v-.729c.298.091.613.14.94.14h4.358c.304 0 .598-.043.877-.122v.711Zm2.074-7.206a2.594 2.594 0 0 0-1.089 2.107v1.291a1.865 1.865 0 0 1-1.862 1.863H8.028a1.882 1.882 0 0 1-1.862-1.863v-1.29c0-.834-.408-1.622-1.092-2.11a8.857 8.857 0 0 1-3.715-7.39c.095-4.803 4.055-8.67 8.85-8.67h.105c4.82.057 8.743 4.027 8.743 8.85a8.874 8.874 0 0 1-3.72 7.212Z" stroke-linejoin="round" stroke-linecap="round" stroke-width=".5" stroke="#fff" fill="transparent"/></g></svg>