<svg xmlns="http://www.w3.org/2000/svg" width="32.263" height="32.847"><path d="M24.105 16.529a8.118 8.118 0 0 0-5.464 2.117v-7.723h4.45a.624.624 0 0 0 .44-1.065L13.861.183a.624.624 0 0 0-.882 0L3.304 9.858a.624.624 0 0 0 .441 1.065h4.443v3l-6.99 6.991a.624.624 0 0 0 .441 1.065h3.133v9.62H.624a.624.624 0 0 0 0 1.248h23.481c4.499 0 8.159-3.66 8.159-8.16 0-4.498-3.66-8.158-8.159-8.158ZM13.42 1.506l8.164 8.17H18.02a.623.623 0 0 0-.625.625v9.76c-.33.476-.61.988-.833 1.53a.624.624 0 0 0-.136-.677l-6.989-6.992V10.3a.624.624 0 0 0-.624-.623h-3.56l8.168-8.17ZM17.394 31.6h-4.545v-9.62h3.135a.624.624 0 0 0 .575-.383 8.108 8.108 0 0 0 .834 7.72v2.283ZM6.02 21.364v-.008a.622.622 0 0 0-.624-.625H3.145l5.668-5.667 5.665 5.668h-2.245l-.008-.001a.624.624 0 0 0-.626.625l.002.02v10.223H6.02V21.364ZM18.64 31.599v-.87c.357.322.74.614 1.149.87H18.64Zm5.464 0c-3.81 0-6.91-3.1-6.91-6.912 0-3.81 3.1-6.91 6.91-6.91 3.811 0 6.91 3.1 6.91 6.91 0 3.812-3.099 6.912-6.91 6.912Z" fill="#375752" fill-rule="evenodd" data-name="Pfad 79192"/></svg>