<svg xmlns="http://www.w3.org/2000/svg" width="37.504" height="31.144" viewBox="1327.56 1608.995 37.504 31.144"><g data-name="growth-chart"><path d="m1358.621 1615.647.362-.733h-1.129l.767.733Z" fill="#375752" fill-rule="evenodd" data-name="Pfad 79181"/><path d="M1330.414 1617.684a.78.78 0 1 1 0 .1z" fill="#375752" fill-rule="evenodd" data-name="Ellipse 14"/><path d="M1333.014 1617.684a.78.78 0 1 1 0 .1z" fill="#375752" fill-rule="evenodd" data-name="Ellipse 15"/><path d="M1335.614 1617.684a.78.78 0 1 1 0 .1z" fill="#375752" fill-rule="evenodd" data-name="Ellipse 16"/><path d="M1332.568 1638.965h-1.869a1.967 1.967 0 0 1-1.964-1.965v-19.488a1.967 1.967 0 0 1 1.964-1.964h15.65a.587.587 0 1 0 0-1.174h-15.65a3.142 3.142 0 0 0-3.139 3.138V1637a3.142 3.142 0 0 0 3.14 3.14h1.868a.587.587 0 1 0 0-1.175Z" fill="#375752" fill-rule="evenodd" data-name="Pfad 79182"/><path d="M1361.926 1614.374h-.217a.587.587 0 1 0 0 1.174h.217a1.967 1.967 0 0 1 1.964 1.964V1637a1.967 1.967 0 0 1-1.964 1.965h-1.811a.587.587 0 1 0 0 1.174h1.81a3.142 3.142 0 0 0 3.14-3.139v-19.488a3.142 3.142 0 0 0-3.14-3.138Z" fill="#375752" fill-rule="evenodd" data-name="Pfad 79183"/><path d="M1338.372 1624.255a.587.587 0 0 0-.587.587v14.71a.587.587 0 0 0 1.174 0v-14.71a.587.587 0 0 0-.587-.587Z" fill="#375752" fill-rule="evenodd" data-name="Pfad 79184"/><path d="M1334.43 1629.693a.587.587 0 0 0-.587.587v6.801a.587.587 0 0 0 1.174 0v-6.801a.587.587 0 0 0-.587-.587Z" fill="#375752" fill-rule="evenodd" data-name="Pfad 79185"/><path d="M1342.314 1628.113a.587.587 0 0 0-.587.587v10.852a.587.587 0 1 0 1.174 0V1628.7a.587.587 0 0 0-.587-.587Z" fill="#375752" fill-rule="evenodd" data-name="Pfad 79186"/><path d="M1346.257 1630.458a.587.587 0 0 0-.587.587v8.507a.587.587 0 1 0 1.174 0v-8.507a.587.587 0 0 0-.587-.587Z" fill="#375752" fill-rule="evenodd" data-name="Pfad 79187"/><path d="M1350.199 1627.375a.587.587 0 0 0-.587.587v11.59a.587.587 0 1 0 1.174 0v-11.59a.587.587 0 0 0-.587-.587Z" fill="#375752" fill-rule="evenodd" data-name="Pfad 79188"/><path d="M1354.141 1622.785a.587.587 0 0 0-.587.587v16.18a.587.587 0 1 0 1.174 0v-16.18a.587.587 0 0 0-.587-.587Z" fill="#375752" fill-rule="evenodd" data-name="Pfad 79189"/><path d="M1358.084 1618.332a.587.587 0 0 0-.587.587v18.162a.587.587 0 1 0 1.174 0v-18.161a.587.587 0 0 0-.587-.588Z" fill="#375752" fill-rule="evenodd" data-name="Pfad 79190"/><path d="M1360.12 1610.157a1.062 1.062 0 0 0-1.157-1.157l-5.008.468a1.062 1.062 0 0 0-.652 1.81l.92.919-5.651 5.65a.587.587 0 1 0 .83.831l6.065-6.065h.001v-.001l.005-.005a.583.583 0 0 0-.068-.888l-1.103-1.104 4.636-.433-.434 4.636-1.1-1.101a.587.587 0 0 0-.935-.14l-11.571 11.568-5.484-5.443a1.122 1.122 0 0 0-1.578 0l-6.425 6.392a.587.587 0 1 0 .828.833l6.387-6.353 5.512 5.472c.42.419 1.1.418 1.52 0l11.208-11.206.976.976a1.053 1.053 0 0 0 1.112.248c.389-.137.661-.49.697-.9l.468-5.007Z" fill="#375752" fill-rule="evenodd" data-name="Pfad 79191"/></g></svg>