<svg xmlns="http://www.w3.org/2000/svg" width="34.027" height="31.467"><path d="M33.994 28.944c-.357-2.334-2.174-4.679-5.48-5.53v-2.241l1.357-1.791a.549.549 0 1 0-.875-.663l-1.032 1.362-1.034-1.362a.549.549 0 0 0-.874.663l1.36 1.791v2.022c-.53-.076-1.09-.12-1.684-.12-1.56 0-2.455-.344-3.491-.743-1.066-.41-2.257-.865-4.309-.99v-6.664l1.741-1.68a4.578 4.578 0 0 0 2.833.96c1.317 0 2.712-.52 3.947-1.55 2.584-2.155 4.02-6.42 1.07-10.69a.652.652 0 0 0-.505-.29c-.371-.014-.585.24-.886.597-.474.562-1.264 1.5-2.867 2.07-2.621.605-4.412 1.987-5.042 3.894-.47 1.418-.205 2.961.69 4.217l-1.527 1.473-1.968-1.927a5.1 5.1 0 0 0 1.022-2.384c.277-1.947-.657-3.826-2.56-5.156-1.285-.897-2.568-1.135-3.81-1.365-1.417-.262-2.755-.51-4.057-1.748-.16-.152-.295-.293-.414-.416-.417-.435-.99-1.03-1.713-.427-.53.438-.833 1.267-.88 2.395-.104 2.506 1.11 6.326 4.058 9.212 1.298 1.272 2.799 1.938 4.286 1.938.54 0 1.077-.087 1.602-.265a5.219 5.219 0 0 0 1.71-.986l2.172 2.126v6.632H16.8c-2.812 0-4.235.569-5.49 1.07-.936.374-1.743.697-3.014.697-.452 0-.878.03-1.292.075V21.1l1.36-1.789a.549.549 0 0 0-.874-.664l-1.034 1.361-1.033-1.36a.548.548 0 1 0-.874.663L5.906 21.1v2.223C2.35 24.084.404 26.52.033 28.943c-.111.729.062 1.422.476 1.904.344.4.831.62 1.373.62h30.264a1.78 1.78 0 0 0 1.372-.62c.414-.482.587-1.175.476-1.903Zm-14.73-20.61c.156-.47.406-.9.742-1.288.763-.88 2.027-1.485 3.594-1.905 1.839-.645 2.792-1.723 3.317-2.344 2.18 3.56 1.027 6.938-1.167 8.768-1.438 1.2-3.615 1.836-5.276.661l2.831-2.73 2.008.165a.549.549 0 1 0 .09-1.094l-1.046-.086.59-.57a.549.549 0 0 0-.761-.79L22.75 8.505l-.01.009-1.025.99.053-.963a.55.55 0 0 0-1.096-.06l-.119 2.143-.844.814c-.618-.945-.787-2.072-.445-3.104ZM12.6 12.496c-1.59.54-3.283.037-4.767-1.417-2.707-2.65-3.824-6.12-3.73-8.382.034-.808.224-1.3.427-1.534.08.073.187.185.279.28.128.134.275.286.448.452C6.795 3.356 8.36 3.646 9.871 3.926c1.178.219 2.29.425 3.38 1.186 1.575 1.1 2.322 2.557 2.103 4.102a3.984 3.984 0 0 1-.732 1.759l-1.635-1.6.132-1.573a.55.55 0 0 0-1.094-.091l-.056.667-2.562-2.508a.55.55 0 0 0-.769.785l.65.636-1.315-.058a.559.559 0 0 0-.572.524.549.549 0 0 0 .524.573l2.54.112 3.405 3.334c-.378.31-.804.564-1.271.722Zm20.086 17.636a.68.68 0 0 1-.54.238H1.882a.68.68 0 0 1-.54-.238c-.201-.235-.285-.618-.223-1.022.349-2.278 2.437-4.937 7.177-4.937 1.482 0 2.424-.377 3.42-.775 1.164-.465 2.484-.993 5.084-.993 2.573 0 3.831.484 5.048.952 1.09.42 2.12.816 3.885.816 4.74 0 6.828 2.66 7.177 4.936.062.405-.022.788-.224 1.023Z" fill="#375752" fill-rule="evenodd" data-name="Pfad 51"/></svg>