<svg xmlns="http://www.w3.org/2000/svg" width="48.385" height="37.679"><path d="M39.904 24.19a12.414 12.414 0 1 0-14.7-5.595h-12.25a.484.484 0 0 0-.106.013.481.481 0 0 0-.099.034l-.034.019a.48.48 0 0 0-.087.063l-.022.018c-.009.01-.015.02-.023.03-.006.006-.013.011-.018.018L.095 35.573a.484.484 0 0 0 .389.772s25.09-.02 25.157-.053c.266.116.5.293.685.516.38.388.853.87 1.768.87.914 0 1.387-.482 1.767-.87.33-.337.57-.58 1.078-.58.508 0 .747.243 1.077.58.38.388.854.87 1.768.87.915 0 1.388-.482 1.768-.87.33-.337.57-.58 1.078-.58.508 0 .747.243 1.077.58.38.388.854.87 1.768.87.915 0 1.388-.482 1.768-.87.33-.337.57-.58 1.078-.58.508 0 .747.243 1.078.58.38.388.853.87 1.768.87.927 0 1.368-.49 1.722-.885.306-.34.507-.565 1.003-.565a.484.484 0 0 0 .388-.772l-8.376-11.267Zm2.732 5.294a2.6 2.6 0 0 0-.9.414l-.127.087a1.76 1.76 0 0 1-2.227 0c-.04-.029-.083-.058-.126-.087-.29-.21-.62-.356-.97-.43l-2.844-3.82c.21.065.427.098.646.096.901 0 1.366-.485 1.74-.874.073-.077.142-.148.21-.214.295-.05.587-.11.874-.18l3.724 5.008Zm-24.397-4.102c.343.243.755.37 1.175.362.901 0 1.366-.485 1.739-.874.32-.335.552-.577 1.04-.577h.006l3.843 5.173c-.354.073-.688.22-.981.432-.044.03-.086.058-.126.087-.648.53-1.579.53-2.226 0l-.127-.087a2.513 2.513 0 0 0-1.342-.477l-3-4.04Zm6.193.295c.176.046.358.068.54.067.9 0 1.365-.485 1.738-.874.32-.335.552-.577 1.04-.577.057 0 .113.004.17.011l3.822 5.138a2.527 2.527 0 0 0-1.123.456l-.127.087c-.647.53-1.578.53-2.226 0-.04-.029-.083-.058-.126-.087a2.612 2.612 0 0 0-.875-.408l-2.833-3.813Zm5.743.04c.117.018.236.027.355.027.9 0 1.365-.485 1.738-.874a2.28 2.28 0 0 1 .526-.451c.212.056.426.106.642.152l3.654 4.91c-.329.078-.639.22-.913.417l-.127.087a1.76 1.76 0 0 1-2.226 0c-.04-.029-.083-.058-.126-.087a2.774 2.774 0 0 0-.67-.348l-2.853-3.834Zm-5.65-13.296c0-6.32 5.122-11.442 11.441-11.442 6.32 0 11.442 5.123 11.442 11.442 0 6.32-5.122 11.442-11.442 11.442-6.316-.007-11.435-5.126-11.442-11.442ZM31.04 23.81c.215.093.433.18.653.262l-.124.129c-.32.334-.552.576-1.04.576-.489 0-.72-.242-1.04-.576a4.904 4.904 0 0 0-.407-.391 2.078 2.078 0 0 0-.589-.353l-2.898-3.895h.228a12.485 12.485 0 0 0 5.217 4.248Zm-6.65-4.248 2.845 3.825c-.302.075-.582.22-.818.423a4.904 4.904 0 0 0-.406.39c-.32.335-.552.577-1.04.577-.489 0-.72-.242-1.04-.576a4.902 4.902 0 0 0-.407-.391 2.008 2.008 0 0 0-.79-.416l-2.847-3.832h4.503Zm-5.708 0 2.868 3.86a2.038 2.038 0 0 0-.69.388 4.902 4.902 0 0 0-.407.39c-.32.335-.552.577-1.04.577s-.72-.242-1.04-.576a4.901 4.901 0 0 0-.406-.391 1.976 1.976 0 0 0-1.254-.481l-2.799-3.767h4.768ZM4.825 35.378l8.13-10.98 8.197 10.98H4.825Zm17.534 0-9.018-12.08a.484.484 0 0 0-.387-.195h-.001a.484.484 0 0 0-.388.196L3.622 35.378H1.446L12.954 19.89 24.46 35.378H22.36Zm6.812.753c-.33.337-.57.58-1.077.58-.509 0-.747-.243-1.078-.58-.328-.335-.726-.74-1.417-.844l-3.254-4.38c.433.3.95.454 1.477.442a2.619 2.619 0 0 0 1.665-.57c.31-.263.706-.405 1.113-.398.045 0 .085.003.126.006l3.67 4.939a2.553 2.553 0 0 0-1.225.805Zm5.69 0c-.33.337-.568.58-1.077.58-.508 0-.747-.243-1.077-.58-.29-.338-.658-.6-1.073-.76l-3.077-4.142c.266.083.543.123.822.12a2.62 2.62 0 0 0 1.666-.57c.31-.263.706-.405 1.113-.398.1 0 .2.008.3.023l3.657 4.915a2.53 2.53 0 0 0-1.253.812Zm5.692 0c-.33.337-.57.58-1.078.58-.508 0-.747-.243-1.077-.58a2.76 2.76 0 0 0-1.029-.746l-3.051-4.102c.203.045.41.067.62.066a2.62 2.62 0 0 0 1.665-.57 1.68 1.68 0 0 1 1.113-.398l.045.002 3.744 5.033c-.364.169-.688.413-.952.715Zm5.616.016c-.305.34-.506.565-1.002.565-.509 0-.747-.244-1.078-.58-.338-.345-.75-.764-1.48-.853l-3.04-4.086c.879.31 1.854.153 2.593-.415a1.68 1.68 0 0 1 1.113-.397v-.036l3.779 5.083a2.633 2.633 0 0 0-.884.719Z" fill="#375752" fill-rule="evenodd" data-name="Pfad 79176"/></svg>