<svg xmlns="http://www.w3.org/2000/svg" width="37.971" height="30.377"><path d="M37.494 3.092 29.9.055a.76.76 0 0 0-.565 0l-7.594 3.037a.76.76 0 0 0-.477.705v7.85a8.398 8.398 0 0 0 4.057 7.165l3.906 2.344a.76.76 0 0 0 .781 0l3.407-2.045v8.506c-.001.687-.558 1.245-1.246 1.245H2.764a1.247 1.247 0 0 1-1.245-1.245V10.632h17.467a.76.76 0 0 0 0-1.52H1.519V7.322c0-.688.558-1.245 1.245-1.246h16.222a.76.76 0 0 0 0-1.519H2.764A2.766 2.766 0 0 0 0 7.321v20.291a2.766 2.766 0 0 0 2.764 2.765H32.17a2.766 2.766 0 0 0 2.765-2.765v-9.538a8.398 8.398 0 0 0 3.037-6.43V3.796a.76.76 0 0 0-.476-.705Zm-1.042 8.554a6.868 6.868 0 0 1-3.32 5.863l-3.514 2.11-3.515-2.11a6.868 6.868 0 0 1-3.32-5.863V4.31l6.835-2.734 6.834 2.734v7.336Z" fill="#375752" fill-rule="evenodd" data-name="Pfad 79173"/></svg>