<svg xmlns="http://www.w3.org/2000/svg" width="39.969" height="53.542" viewBox="247.514 87.694 39.969 53.542"><path d="M286.73 109.182c-.33-.556-.936-1.192-2.025-1.463v-1.628a2.415 2.415 0 0 0-2.412-2.413c-.578 0-1.11.205-1.525.545a2.497 2.497 0 0 0-4.17-.06 2.379 2.379 0 0 0-1.636-.563c.84-1.239 1.579-2.595 1.89-5.03.25-1.939.016-3.63-.655-4.762-.33-.556-.935-1.192-2.024-1.462v-1.629a2.415 2.415 0 0 0-2.413-2.412c-.578 0-1.11.204-1.525.545a2.497 2.497 0 0 0-4.17-.06 2.379 2.379 0 0 0-1.542-.566c-.927 0-1.732.531-2.128 1.305a2.208 2.208 0 0 0-1.205-.357 2.226 2.226 0 0 0-2.223 2.223v2.923c0 .346.082.672.224.964-.84 7.003.092 8.555.842 9.802.343.571.59.983.576 1.997l-.032 2.116a2.192 2.192 0 0 0-1.111 1.904v.451c-.209.09-.403.209-.576.35a2.497 2.497 0 0 0-4.17-.06 2.379 2.379 0 0 0-1.542-.565c-.927 0-1.732.531-2.128 1.305a2.208 2.208 0 0 0-1.205-.358 2.226 2.226 0 0 0-2.223 2.224v2.923c0 .346.082.672.223.964-.84 7.003.093 8.555.842 9.802.344.57.592.983.576 1.997l-.032 2.115a2.192 2.192 0 0 0-1.11 1.905v6.442c0 .354.286.64.64.64h34.422a.64.64 0 0 0 .64-.64v-14.121a2.19 2.19 0 0 0-1.037-1.86 5.66 5.66 0 0 1 .64-2.405c.532-1.049 1.075-1.818 1.6-2.562 1.023-1.452 1.99-2.824 2.36-5.703.248-1.94.015-3.632-.656-4.763Zm-4.437-4.224c.625 0 1.133.508 1.133 1.133v1.495h-2.266v-1.495c0-.625.508-1.133 1.133-1.133Zm-4.847.607c0-.671.546-1.217 1.217-1.217s1.217.546 1.217 1.217v2.021h-.811c-.62 0-1.186.227-1.623.602v-2.623Zm-1.28.422v3.51a1.111 1.111 0 0 1-2.22 0v-3.51a1.111 1.111 0 0 1 2.22 0Zm-3.491 3.704h-.009a.944.944 0 0 1-1.886 0v-2.923a.944.944 0 0 1 1.886 0v2.729c0 .065.004.13.009.195Zm-.915-20.106c.625 0 1.133.508 1.133 1.132v1.496h-2.265v-1.496c0-.624.508-1.132 1.132-1.132Zm-3.63-.61c.672 0 1.218.545 1.218 1.217v2.02h-.812c-.62 0-1.186.228-1.623.602v-2.622c0-.672.546-1.218 1.217-1.218Zm-4.717 1.639a1.111 1.111 0 0 1 2.22 0v3.509a1.111 1.111 0 0 1-2.22 0v-3.51Zm-3.166.78a.944.944 0 0 1 1.887 0v2.729c0 .066.003.13.008.195h-.008a.944.944 0 0 1-1.887 0v-2.923Zm.108 4.983a2.21 2.21 0 0 0 2.478-.567 2.382 2.382 0 0 0 3.435-.057 2.5 2.5 0 0 0 2.268 1.454h1.514c-1.211 1.042-2.688 2.493-3.126 5.192a.64.64 0 1 0 1.263.205c.404-2.488 1.858-3.717 3.025-4.705.1-.084.196-.166.288-.246.547-.47.544-.885.445-1.151-.141-.382-.506-.575-1.085-.575h-2.324a1.219 1.219 0 0 1-1.217-1.217c0-.672.546-1.218 1.217-1.218h4.483c1.011 0 1.69.317 2.077.969.527.887.7 2.29.487 3.947-.328 2.564-1.126 3.696-2.137 5.129-.266.378-.54.767-.82 1.202a2.208 2.208 0 0 0-.903-.194 2.226 2.226 0 0 0-2.223 2.223v2.14h-7.64l.028-1.807c.021-1.38-.375-2.039-.758-2.676-.617-1.026-1.377-2.291-.775-8.048Zm1.193 18.888h-2.266v-1.495a1.134 1.134 0 0 1 2.265 0v1.495Zm-4.763-3.238c.671 0 1.217.546 1.217 1.218v2.02h-.811c-.62 0-1.186.228-1.623.602v-2.622c0-.672.546-1.218 1.217-1.218Zm-4.717 1.64a1.111 1.111 0 0 1 2.22 0v3.509a1.111 1.111 0 0 1-2.22 0v-3.51Zm-3.166.78a.944.944 0 0 1 1.886 0v2.729c0 .066.004.13.009.195h-.009a.944.944 0 0 1-1.886 0v-2.923Zm.108 4.983a2.21 2.21 0 0 0 2.478-.566 2.382 2.382 0 0 0 3.435-.058 2.5 2.5 0 0 0 2.268 1.454h1.514c-1.212 1.042-2.688 2.493-3.126 5.192a.64.64 0 1 0 1.263.205c.404-2.488 1.857-3.717 3.025-4.705l.288-.245c.546-.47.543-.886.445-1.152-.142-.381-.507-.575-1.086-.575h-2.323a1.219 1.219 0 0 1-1.218-1.217c0-.672.546-1.218 1.218-1.218h4.482c1.012 0 1.691.317 2.078.969.526.888.699 2.29.487 3.947-.329 2.564-1.127 3.696-2.137 5.13-.525.744-1.12 1.588-1.695 2.718a6.892 6.892 0 0 0-.762 2.653h-9.129l.028-1.808c.02-1.38-.376-2.039-.759-2.676-.617-1.026-1.376-2.29-.774-8.048Zm11.655 20.527H249.4v-5.803c0-.503.41-.912.912-.912h9.44c.503 0 .913.41.913.912v5.803Zm9.333-13.482v13.482h-8.053v-5.803a2.19 2.19 0 0 0-1.037-1.86 5.652 5.652 0 0 1 .64-2.405c.533-1.048 1.075-1.817 1.6-2.561 1.023-1.453 1.99-2.825 2.36-5.704.248-1.94.015-3.631-.656-4.763-.33-.556-.936-1.192-2.024-1.462v-1.629a2.416 2.416 0 0 0-2.082-2.39v-.279c0-.503.409-.912.912-.912h7.9c.038.163.094.32.165.467-.84 7.003.092 8.555.842 9.802.343.57.591.983.576 1.997l-.032 2.115a2.192 2.192 0 0 0-1.11 1.905Zm12.545 13.482h-11.265v-13.482c0-.503.41-.912.913-.912h9.44c.503 0 .912.409.912.912v13.482Zm3.573-26.175c-.329 2.564-1.127 3.696-2.137 5.129-.525.744-1.12 1.588-1.695 2.719a6.899 6.899 0 0 0-.762 2.653h-9.128l.027-1.809c.02-1.38-.376-2.038-.759-2.676-.617-1.026-1.376-2.29-.774-8.048a2.21 2.21 0 0 0 2.478-.566 2.382 2.382 0 0 0 3.435-.057 2.5 2.5 0 0 0 2.268 1.454h1.514c-1.212 1.042-2.688 2.492-3.126 5.192a.64.64 0 1 0 1.263.205c.404-2.488 1.857-3.718 3.025-4.706.1-.084.196-.165.288-.245.547-.47.544-.885.445-1.151-.141-.382-.507-.575-1.085-.575h-2.324a1.219 1.219 0 0 1-1.217-1.218c0-.671.546-1.217 1.217-1.217h4.482c1.012 0 1.691.317 2.078.969.526.887.7 2.289.487 3.947Z" fill="#375752" fill-rule="evenodd" data-name="independence"/></svg>