<svg xmlns="http://www.w3.org/2000/svg" width="47.329" height="57.458" viewBox="1557.337 4591.617 47.329 57.458"><g data-name="personal-data"><path d="m1580.734 4617.711-13.077 4.55a.823.823 0 0 0-.559.773v4.939c-.012 1.112 1.664 1.112 1.65 0v-4.355l12.253-4.262 12.262 4.262v4.355c-.05 1.143 1.694 1.143 1.641 0v-4.94c0-.346-.219-.66-.552-.772l-13.075-4.55c-.227-.079-.322-.076-.543 0Z" fill="#375752" fill-rule="evenodd" data-name="Pfad 79225"/><path d="M1579.106 4593.478c4.395-1.04 8.787 1.638 9.84 5.984 1.048 4.346-1.648 8.696-6.044 9.733-4.399 1.038-8.79-1.637-9.84-5.984-1.052-4.346 1.646-8.694 6.044-9.733Zm-.385-1.595c-5.254 1.24-8.518 6.489-7.258 11.707 1.259 5.217 6.567 8.443 11.823 7.202 5.256-1.24 8.516-6.49 7.256-11.707-1.26-5.217-6.569-8.444-11.82-7.202Z" fill="#375752" fill-rule="evenodd" data-name="Pfad 79226"/><path d="M1572.72 4614.81h16.566c2.202 0 3.626.385 4.794 1.237 1.17.852 2.148 2.26 3.219 4.47l4.995 10.315c.693 1.431.852 2.52.625 3.286-.227.77-.833 1.401-2.18 1.92l-5.274 2.05c-.867.339-1.517.25-2.06-.042-.539-.29-.97-.83-1.195-1.475-.453-1.293-.17-2.837 1.598-3.595 1.57-.675 4.305-1.784 4.305-1.784 1.125-.359.442-2.045-.615-1.52 0 0-2.731 1.108-4.338 1.799-2.505 1.075-3.196 3.667-2.501 5.644.09.264.21.517.347.758-2.098 4.01-5.607 6.99-10.006 9.39-4.398-2.4-7.904-5.38-10.006-9.39.14-.24.257-.494.351-.758.695-1.977.004-4.569-2.506-5.644-1.603-.69-4.334-1.8-4.334-1.8-1.06-.524-1.743 1.162-.615 1.52 0 0 2.731 1.11 4.304 1.785 1.766.758 2.053 2.302 1.6 3.595-.227.645-.66 1.185-1.2 1.475-.538.292-1.192.38-2.06.042l-5.27-2.049c-1.346-.52-1.954-1.15-2.181-1.92-.23-.766-.068-1.856.622-3.286l5.003-10.315c1.068-2.21 2.045-3.618 3.214-4.47 1.172-.853 2.594-1.239 4.798-1.239Zm0-1.638c-2.4 0-4.256.441-5.765 1.544-1.51 1.101-2.608 2.772-3.728 5.085l-4.995 10.315c-.79 1.63-1.125 3.127-.728 4.47.4 1.344 1.535 2.354 3.169 2.989l5.27 2.048c1.253.487 2.476.385 3.429-.129.163-.086.317-.191.464-.302 2.388 4.226 6.18 7.354 10.78 9.787a.819.819 0 0 0 .77 0c4.6-2.433 8.394-5.561 10.779-9.787.15.11.301.216.467.302.951.513 2.178.616 3.43.13l5.273-2.05c1.635-.634 2.766-1.645 3.162-2.987.397-1.343.068-2.842-.724-4.47l-4.995-10.316c-1.12-2.312-2.221-3.984-3.73-5.085-1.506-1.102-3.363-1.544-5.762-1.544h-16.566Z" fill="#375752" fill-rule="evenodd" data-name="Pfad 79227"/><path d="m1587.91 4629.833-8.501 8.576c-.057.056-.125.056-.181 0l-5.127-5.128 1.591-1.63 3.052 3.06a.829.829 0 0 0 1.162 0l6.307-6.312 1.696 1.434Zm-1.63-3.165a2.03 2.03 0 0 0-1.22.566l-5.73 5.73-2.472-2.468a1.774 1.774 0 0 0-2.494 0l-1.429 1.453a1.773 1.773 0 0 0 0 2.487l5.139 5.138c.783.785 1.708.793 2.49.007l8.511-8.59c.702-.71.558-1.879-.008-2.479l-1.406-1.392c-.402-.392-.929-.501-1.382-.452Z" fill="#375752" fill-rule="evenodd" data-name="Pfad 79228"/></g></svg>