<svg xmlns="http://www.w3.org/2000/svg" width="47.328" height="47.327"><path d="M44.85 3.17a2.776 2.776 0 0 0-1.624.333 2.73 2.73 0 0 0-3.92-1.59 2.76 2.76 0 0 0-2.91-1.898 2.736 2.736 0 0 0-2.034 1.304 2.708 2.708 0 0 0-4.072 1.048h-7.768a.796.796 0 0 1-.408-.116L18.925.343A2.375 2.375 0 0 0 17.711 0H6.03a2.845 2.845 0 0 0-2.86 2.477 2.78 2.78 0 0 0 .333 1.625 2.728 2.728 0 0 0-1.59 3.92 2.757 2.757 0 0 0-1.898 2.912 2.734 2.734 0 0 0 1.305 2.033 2.782 2.782 0 0 0-.516 1.91 2.753 2.753 0 0 0 1.563 2.166v7.765a.789.789 0 0 1-.117.405L.326 28.419c-.21.365-.322.778-.325 1.2v11.68a2.847 2.847 0 0 0 2.477 2.859 2.8 2.8 0 0 0 1.625-.333 2.73 2.73 0 0 0 3.92 1.59 2.752 2.752 0 0 0 2.626 1.912c.951 0 1.832-.5 2.318-1.318a2.711 2.711 0 0 0 4.075-1.048h7.764a.796.796 0 0 1 .408.116l3.19 1.91c.366.22.786.338 1.214.34h11.681a2.845 2.845 0 0 0 2.86-2.477 2.78 2.78 0 0 0-.334-1.624 2.728 2.728 0 0 0 1.59-3.92 2.757 2.757 0 0 0 1.898-2.91 2.734 2.734 0 0 0-1.304-2.034c.4-.552.584-1.232.516-1.91a2.752 2.752 0 0 0-1.564-2.162v-7.77a.805.805 0 0 1 .116-.407l1.91-3.188c.221-.367.339-.787.34-1.216V6.03a2.847 2.847 0 0 0-2.477-2.86ZM1.585 10.778a1.183 1.183 0 0 1 1.177-1.312h5.127a.789.789 0 0 0 0-1.578h-3.55a1.183 1.183 0 0 1-1.18-1.31c.102-.628.657-1.082 1.293-1.056h5.014a.789.789 0 0 0 0-1.578h-3.55a1.183 1.183 0 0 1-1.179-1.31c.101-.628.656-1.082 1.293-1.056h11.68a.789.789 0 0 1 .408.117l3.19 1.91c.366.22.786.337 1.214.34h7.452v7.01l-1.366-1.118a2.622 2.622 0 0 0-3.4.187 2.484 2.484 0 0 0-.618 2.597h-2.645c-.62.003-1.215.249-1.656.686l-7.423 7.363-.016.015-.328.325a.98.98 0 0 1-1.38-.01.975.975 0 0 1-.08-1.286l2.17-2.65a.789.789 0 0 0-.61-1.288H3.662a1.257 1.257 0 0 1-1.29-1.056 1.183 1.183 0 0 1 1.177-1.31H7.89a.789.789 0 0 0 0-1.578H2.874a1.257 1.257 0 0 1-1.29-1.054ZM33.13 25.76 25.928 32.9a.776.776 0 0 1-.546.227h-3.814l-7.141-7.198a.777.777 0 0 1-.228-.547v-3.817l7.2-7.14a.776.776 0 0 1 .546-.228h3.818l7.141 7.199a.782.782 0 0 1 .226.547v3.816ZM14.713 44.955a1.169 1.169 0 0 1-.91-.297 1.194 1.194 0 0 1-.393-.88V39.439a.789.789 0 0 0-1.577 0v5.016a1.262 1.262 0 0 1-1.066 1.29 1.162 1.162 0 0 1-.909-.297 1.193 1.193 0 0 1-.392-.882V39.44a.789.789 0 0 0-1.577 0V43a1.183 1.183 0 0 1-1.31 1.168 1.257 1.257 0 0 1-1.057-1.29v-5.015a.789.789 0 1 0-1.577 0V41.418a1.183 1.183 0 0 1-1.309 1.172 1.257 1.257 0 0 1-1.058-1.29V29.617a.842.842 0 0 1 .108-.405l1.92-3.192a2.39 2.39 0 0 0 .339-1.213v-7.454h7.01L9.836 18.72a2.541 2.541 0 0 0 2.785 4.018v2.644c.003.621.25 1.216.687 1.657l7.356 7.414a.43.43 0 0 0 .027.027l.32.324a.978.978 0 0 1-.7 1.663.947.947 0 0 1-.59-.204l-2.65-2.169a.789.789 0 0 0-1.295.612v8.958a1.262 1.262 0 0 1-1.063 1.29Zm31.03-8.405a1.183 1.183 0 0 1-1.176 1.312H39.44a.789.789 0 1 0 0 1.577h3.55a1.183 1.183 0 0 1 1.179 1.31 1.257 1.257 0 0 1-1.292 1.057h-5.015a.789.789 0 0 0 0 1.577h3.55a1.183 1.183 0 0 1 1.179 1.31 1.257 1.257 0 0 1-1.292 1.057H29.618a.789.789 0 0 1-.407-.117l-3.19-1.91a2.383 2.383 0 0 0-1.215-.34h-7.452V36.37l1.366 1.119a2.615 2.615 0 0 0 3.4-.187 2.484 2.484 0 0 0 .62-2.595h2.643a2.366 2.366 0 0 0 1.656-.687l7.421-7.359.028-.027.32-.315a.98.98 0 0 1 1.381.01c.347.347.38.898.08 1.286l-2.17 2.65a.789.789 0 0 0 .608 1.287h8.958a1.257 1.257 0 0 1 1.29 1.056 1.183 1.183 0 0 1-1.177 1.31H39.44a.789.789 0 0 0 0 1.577h5.016a1.257 1.257 0 0 1 1.288 1.055Zm.007-18.84a.796.796 0 0 1-.116.406l-1.911 3.19c-.22.367-.337.786-.34 1.214v7.454h-7.012l1.119-1.367a2.552 2.552 0 0 0-.189-3.399 2.597 2.597 0 0 0-2.594-.598v-2.666a2.366 2.366 0 0 0-.686-1.656l-7.36-7.426-.014-.015-.326-.328a.963.963 0 0 1 .01-1.38 1 1 0 0 1 1.287-.078l2.65 2.168a.789.789 0 0 0 1.284-.608V3.663a1.257 1.257 0 0 1 1.057-1.29 1.183 1.183 0 0 1 1.31 1.177v4.338a.789.789 0 0 0 1.577 0V2.874a1.257 1.257 0 0 1 1.057-1.29 1.183 1.183 0 0 1 1.31 1.177v5.127a.789.789 0 0 0 1.577 0v-3.55a1.183 1.183 0 0 1 1.31-1.178c.628.1 1.082.656 1.056 1.292v5.014a.789.789 0 0 0 1.578 0v-3.55a1.183 1.183 0 0 1 1.31-1.178c.627.1 1.08.655 1.056 1.29V17.71Z" fill="#375752" fill-rule="evenodd" data-name="Shape"/></svg>