<svg xmlns="http://www.w3.org/2000/svg" width="59.423" height="48.978" viewBox="237.788 102.764 59.423 48.978"><path d="m296.84 131.081-9.845-15.433a2.38 2.38 0 0 0-3.284-.726l-4.833 3.083a2.379 2.379 0 0 0-.97 2.768c-.22.004-.448-.001-.684-.014-1.07-.058-1.737-.385-2.442-.73-1.787-.875-3.284-1.297-7.094.765-1.411-1.84-3.751-1.26-5.84-.741-1.615.4-3.275.813-4.803.427a2.38 2.38 0 0 0-.923-2.896l-4.833-3.084a2.38 2.38 0 0 0-3.284.726l-9.845 15.434a2.382 2.382 0 0 0 .726 3.282l4.833 3.084a2.356 2.356 0 0 0 1.792.315 2.36 2.36 0 0 0 1.491-1.04l.637-.999c.05.05.102.099.152.144-1.016 1.133-1.945 2.433-1.798 4.14.104 1.213.543 2.112 1.304 2.67.683.501 1.6.696 2.731.583.153.99.54 1.783 1.154 2.362.711.67 1.706 1.032 2.964 1.08.237.865.681 1.526 1.325 1.971.846.586 1.964.763 3.402.536.621 1.526 1.857 2.323 3.618 2.323.063 0 .126 0 .19-.003.948-.03 1.891-.735 2.592-1.424 1.986 1.368 3.71 2.058 5.147 2.058.43.003.859-.066 1.267-.204 1.065-.367 1.871-1.196 2.404-2.468 1.216.39 2.278.364 3.164-.076.96-.477 1.67-1.423 2.118-2.816 1.17.121 2.126-.094 2.852-.644.689-.522 1.141-1.323 1.35-2.387 1.651.18 3.042-.232 4.142-1.232a.847.847 0 0 0 .133-.154c.806-1.203 1.096-2.377.862-3.486a4.27 4.27 0 0 0-1.102-2.018l.06-.05.327.514c.339.533.876.908 1.492 1.041a2.355 2.355 0 0 0 1.791-.316l4.834-3.083a2.38 2.38 0 0 0 .726-3.282Zm-51.257 4.314a.695.695 0 0 1-.958.211l-4.834-3.083a.694.694 0 0 1-.211-.958l9.845-15.433a.689.689 0 0 1 .59-.32c.13 0 .258.038.368.108l4.833 3.084a.695.695 0 0 1 .212.958l-9.845 15.433Zm2.71 5.504c-.352-.259-.561-.749-.622-1.458-.112-1.3.896-2.373 1.965-3.508.211-.225.43-.457.635-.688a1.674 1.674 0 0 1 1.668-.528c.7.173 1.265.69 1.5 1.371-.29.895-1.06 2.578-3.097 5.007-.933.172-1.638.105-2.05-.196Zm3.356 1.257c2.29-2.737 3.13-4.686 3.435-5.686.824-.86 2.248-1.235 3.266-.834.719.284 1.084.909 1.087 1.857l-5.044 7.111c-.929-.006-1.62-.216-2.055-.628-.409-.385-.639-.997-.69-1.82Zm4.78 4.712c-.353-.244-.584-.65-.705-1.23l5.04-7.103c1.162-.195 2.041-.018 2.493.51.475.557.493 1.556.056 2.755a5937.272 5937.272 0 0 0-2.972 3.609c-.639.775-1.119 1.36-1.358 1.648-1.153.236-2.033.171-2.554-.19Zm6.2 2.558c-1.196.038-1.888-.391-2.25-1.415l1.261-1.532 2.72-3.303c1.06.316 1.674.768 1.824 1.347.124.477-.27 1.687-1.245 2.99-.915 1.224-1.874 1.899-2.31 1.913Zm23.88-8.69c-.84.719-1.93.93-3.323.646l-9.287-6.277-.943 1.396 9.008 6.088c-.111.768-.364 1.306-.756 1.603-.452.343-1.17.421-2.128.24l-7.16-4.673-.921 1.41 6.791 4.431c-.3.978-.731 1.612-1.284 1.886-.601.3-1.445.214-2.508-.25l-4.226-3.004-.976 1.372 3.79 2.695c-.344.88-.83 1.435-1.448 1.648-1.077.371-2.716-.165-4.76-1.548.54-.747 1.839-2.754 1.436-4.3-.29-1.115-1.194-1.936-2.692-2.446.387-1.504.188-2.797-.585-3.701-.755-.884-1.966-1.281-3.467-1.153-.195-1.297-.93-2.267-2.103-2.73-1.378-.543-3.084-.27-4.368.613a3.761 3.761 0 0 0-2.285-1.607 3.357 3.357 0 0 0-3.301 1.051l-.076.084a3.118 3.118 0 0 1-.36-.379l7.568-11.862c2.083.717 4.21.19 6.108-.282 2.223-.552 3.328-.725 4.015.034-4.112 3.206-6.706 7.1-6.367 9.64.123.928.641 1.613 1.457 1.928.349.13.719.193 1.09.187 2.12 0 5.302-1.715 9.147-4.958.006-.006.633-.48 3.928 1.405 2.164 1.238 4.66 3.017 6.667 4.446 1.202.857 2.24 1.596 2.956 2.042 1.112.704 1.757 1.448 1.918 2.212.134.634-.047 1.326-.555 2.113Zm-.241-5.603c-.074-.05-.149-.099-.226-.148-.677-.42-1.696-1.147-2.875-1.987-6.188-4.409-10.718-7.403-12.657-5.767-4.675 3.943-7.525 4.882-8.545 4.488-.166-.064-.342-.183-.395-.58-.195-1.467 1.626-5.072 6.285-8.509 3.863-2.225 4.838-1.748 6.186-1.087.748.366 1.679.821 3.091.899.576.034 1.154.02 1.728-.043l7.88 12.353a1.26 1.26 0 0 1-.472.381Zm8.94-2.188-4.833 3.083a.694.694 0 0 1-.958-.211l-9.845-15.433a.699.699 0 0 1 .212-.958l4.833-3.084a.695.695 0 0 1 .958.212l9.845 15.433a.695.695 0 0 1-.212.958Zm-19.48-24.958a.842.842 0 0 1 1.187-.078l3.185 2.79a.842.842 0 0 1 .02 1.248l-2.913 2.725a.842.842 0 1 1-1.15-1.23l1.321-1.236-15.123.297h-.017a.842.842 0 0 1-.016-1.684l15.122-.297-1.538-1.347a.842.842 0 0 1-.079-1.188Zm-24.2-.977a.842.842 0 0 1 .021-1.248l3.186-2.79a.842.842 0 1 1 1.109 1.267l-1.538 1.348 15.121.296a.842.842 0 0 1-.016 1.685h-.017l-15.123-.298 1.321 1.235a.842.842 0 1 1-1.15 1.23l-2.913-2.725Z" fill="#375752" fill-rule="evenodd" data-name="trade"/></svg>