<svg xmlns="http://www.w3.org/2000/svg" width="45.87" height="42.142"><path d="M45.87 6.05a3.562 3.562 0 0 0-3.558-3.558h-2.616A3.156 3.156 0 0 0 36.614 0a3.156 3.156 0 0 0-3.08 2.492h-7.519A3.154 3.154 0 0 0 22.936 0a3.156 3.156 0 0 0-3.08 2.492h-7.519A3.156 3.156 0 0 0 9.256 0a3.156 3.156 0 0 0-3.081 2.492H3.558A3.562 3.562 0 0 0 0 6.05v33.546a2.547 2.547 0 0 0 2.543 2.546c6.8 0 13.596-.004 20.393-.008 6.796-.004 13.592-.008 20.39-.008a2.548 2.548 0 0 0 2.544-2.546c-.004-6.204 0-33.53 0-33.53ZM34.94 3.15a1.674 1.674 0 0 1 3.347 0V5.01c0 .923-.75 1.673-1.674 1.673-.922 0-1.673-.75-1.673-1.673V3.151Zm-13.678 0c0-.92.75-1.67 1.673-1.67.921 0 1.671.75 1.671 1.67V5.01c0 .923-.75 1.673-1.67 1.673-.923 0-1.674-.75-1.674-1.673V3.151Zm-13.68 0a1.674 1.674 0 0 1 3.346 0V5.01c0 .923-.75 1.673-1.673 1.673s-1.673-.75-1.673-1.673V3.151Zm-4.025.822h2.545v1.037a3.157 3.157 0 0 0 3.153 3.153 3.157 3.157 0 0 0 3.153-3.153V3.972h7.374v1.037a3.157 3.157 0 0 0 3.153 3.153 3.155 3.155 0 0 0 3.151-3.153V3.972h7.375v1.037a3.157 3.157 0 0 0 3.153 3.153 3.157 3.157 0 0 0 3.152-3.153V3.972h2.545A2.08 2.08 0 0 1 44.39 6.05v4.363H1.48V6.05c0-1.146.932-2.078 2.078-2.078ZM44.39 39.58c0 .588-.478 1.066-1.065 1.066-6.797 0-13.594.004-20.39.008-6.796.004-13.593.008-20.392.008a1.066 1.066 0 0 1-1.063-1.066V11.892h42.91s-.004 21.484 0 27.688Z" fill="#39574d" fill-rule="evenodd" data-name="Pfad 15"/></svg>