<svg xmlns="http://www.w3.org/2000/svg" width="35.984" height="44.98" viewBox="1528.009 4771.51 35.984 44.98"><path d="m1537.952 4794.505-9.219-2.226a.587.587 0 0 0-.71.704l2.146 9.223a6.366 6.366 0 0 0 6.235 4.97h.032a6.372 6.372 0 0 0 4.138-1.529l4.84 4.836v5.42a.587.587 0 1 0 1.173 0v-5.42l4.84-4.835a6.372 6.372 0 0 0 4.138 1.529h.032a6.366 6.366 0 0 0 6.235-4.969l2.145-9.225a.587.587 0 0 0-.709-.703l-9.222 2.227a6.412 6.412 0 0 0-3.442 10.304l-4.017 4.013v-14.537h3.272a2.04 2.04 0 0 0 2.037-2.037v-3.973h1.767a2.944 2.944 0 0 0 2.94-2.94v-7.333a.587.587 0 0 0-.586-.587h-3.318v-5.32a.587.587 0 1 0-1.174 0v5.32h-11.05v-5.32a.587.587 0 1 0-1.173 0v5.32h-3.317a.587.587 0 0 0-.587.587v7.333a2.944 2.944 0 0 0 2.94 2.94h1.767v3.973a2.04 2.04 0 0 0 2.037 2.037h3.272v14.537l-4.018-4.014a6.412 6.412 0 0 0-3.444-10.305Zm22.736 7.44a5.198 5.198 0 0 1-5.092 4.058h-.03a5.205 5.205 0 0 1-3.307-1.186l10.11-10.102-1.68 7.23Zm-10.37-1.162a5.256 5.256 0 0 1 4.007-5.137l7.19-1.736-10.076 10.067a5.261 5.261 0 0 1-1.12-3.194Zm-9.04-8.533v-4.56a.587.587 0 0 0-.586-.586h-2.354a1.77 1.77 0 0 1-1.767-1.767v-6.746h18.859v6.746a1.77 1.77 0 0 1-1.767 1.767h-2.354a.587.587 0 0 0-.587.586v4.56a.864.864 0 0 1-.863.863h-7.717a.864.864 0 0 1-.863-.863Zm-4.842 13.753h-.03a5.2 5.2 0 0 1-5.094-4.06l-1.68-7.228 10.111 10.102a5.203 5.203 0 0 1-3.307 1.186Zm-5.95-12.093 7.187 1.735a5.24 5.24 0 0 1 2.89 8.332l-10.077-10.067Z" fill="#39574d" fill-rule="evenodd" data-name="eco-energy"/></svg>