<svg xmlns="http://www.w3.org/2000/svg" width="53.107" height="47.968" viewBox="349.457 4199.026 53.107 47.968"><g data-name="interview"><path d="M349.594 4245.676a.839.839 0 0 0 .026.95.865.865 0 0 0 .702.368c.06 0 .12 0 .188-.017l7.87-1.747a16.285 16.285 0 0 0 7.363 1.764c8.88 0 16.115-7.158 16.252-16.012 3.854 1.045 8.075.65 11.654-1.165l7.87 1.739c.06.017.12.017.188.017.274 0 .54-.137.702-.368a.87.87 0 0 0 .026-.95l-3.211-5.079a16.277 16.277 0 0 0 3.34-9.881c0-8.974-7.296-16.27-16.27-16.27s-16.115 7.16-16.252 16.004a16.18 16.18 0 0 0-4.299-.59c-8.99.008-16.286 7.304-16.286 16.277 0 3.571 1.182 7.056 3.348 9.882l-3.211 5.078Zm36.683-44.93c8.023 0 14.556 6.534 14.556 14.557 0 3.383-1.181 6.68-3.339 9.274a.85.85 0 0 0-.068 1.002l2.44 3.853-6.165-1.361a.883.883 0 0 0-.591.077c-3.417 1.815-7.535 2.166-11.2 1.019-.583-6.174-4.641-11.355-10.19-13.564 0-.103-.009-.205-.009-.308 0-8.023 6.534-14.557 14.557-14.557Zm-35.108 29.97c0-8.023 6.534-14.556 14.557-14.556s14.557 6.533 14.557 14.556c0 8.024-6.534 14.557-14.557 14.557-2.38 0-4.744-.59-6.842-1.712a.852.852 0 0 0-.402-.103c-.06 0-.128 0-.188.017l-6.157 1.361 2.44-3.853a.862.862 0 0 0-.06-1.002 14.569 14.569 0 0 1-3.339-9.282Z" fill="#39574d" fill-rule="evenodd" data-name="Pfad 79196"/><path d="M364.442 4237.039a1.284 1.284 0 1 1 0 .1z" fill="#39574d" fill-rule="evenodd" data-name="Ellipse 17"/><path d="M365.726 4223.866a2.576 2.576 0 0 1 2.569 2.57 2.576 2.576 0 0 1-2.569 2.568.859.859 0 0 0-.856.856v4.282h1.712v-3.511a4.282 4.282 0 1 0-5.137-4.196h1.712a2.576 2.576 0 0 1 2.57-2.569Z" fill="#39574d" fill-rule="evenodd" data-name="Pfad 79197"/><path d="M379.427 4209.31h13.7v1.712h-13.7v-1.712Z" fill="#39574d" fill-rule="evenodd" data-name="Pfad 79198"/><path d="M379.427 4214.447h13.7v1.713h-13.7v-1.713Z" fill="#39574d" fill-rule="evenodd" data-name="Pfad 79199"/><path d="M382.852 4219.585h10.275v1.712h-10.275v-1.712Z" fill="#39574d" fill-rule="evenodd" data-name="Pfad 79200"/></g></svg>