<svg xmlns="http://www.w3.org/2000/svg" width="45.324" height="45.324" viewBox="1523.543 5352.542 45.324 45.324"><g data-name="maintenance-2"><path d="m1524.27 5379.213 4.181.403a18.054 18.054 0 0 0 2.12 5.037l-2.66 3.214a.805.805 0 0 0 .05 1.083l4.526 4.526a.805.805 0 0 0 1.083.05l3.22-2.665a18.457 18.457 0 0 0 5.03 2.125l.404 4.166c.04.41.39.72.801.713h6.417a.793.793 0 0 0 .801-.713l.403-4.173a18.041 18.041 0 0 0 5.037-2.117l3.214 2.663a.805.805 0 0 0 1.083-.05l4.526-4.525a.805.805 0 0 0 .05-1.083l-2.665-3.22a18.458 18.458 0 0 0 2.125-5.031l4.124-.403a.805.805 0 0 0 .727-.801v-6.417a.805.805 0 0 0-.728-.801l-4.18-.403a18.055 18.055 0 0 0-2.12-5.037l2.66-3.214a.805.805 0 0 0-.046-1.08l-4.47-4.526a.805.805 0 0 0-1.086-.054l-3.219 2.666a18.457 18.457 0 0 0-5.031-2.125l-.403-4.166a.793.793 0 0 0-.802-.713h-6.416a.793.793 0 0 0-.802.713l-.402 4.173a18.04 18.04 0 0 0-5.037 2.117l-3.215-2.663a.805.805 0 0 0-1.083.05l-4.526 4.525a.805.805 0 0 0-.05 1.083l2.665 3.219a18.459 18.459 0 0 0-2.125 5.031l-4.18.403a.805.805 0 0 0-.728.802v6.417c0 .415.315.762.728.801Zm.883-6.487 4.028-.388a.805.805 0 0 0 .71-.631 16.864 16.864 0 0 1 2.353-5.578.805.805 0 0 0-.057-.95l-2.569-3.101 3.49-3.49 3.102 2.57a.805.805 0 0 0 .96.05 16.363 16.363 0 0 1 5.568-2.347.79.79 0 0 0 .631-.696l.388-4.013h4.954l.388 4.013c.034.347.29.632.631.702a16.856 16.856 0 0 1 5.578 2.35c.295.19.68.166.95-.058l3.098-2.567 3.439 3.482-2.572 3.106a.805.805 0 0 0-.05.96 16.366 16.366 0 0 1 2.347 5.568.805.805 0 0 0 .71.632l4.027.386v4.955l-3.971.388a.805.805 0 0 0-.71.631 16.866 16.866 0 0 1-2.352 5.577.805.805 0 0 0 .056.95l2.57 3.102-3.49 3.49-3.102-2.57a.805.805 0 0 0-.96-.05 16.363 16.363 0 0 1-5.568 2.347.79.79 0 0 0-.632.696l-.387 4.013h-4.954l-.388-4.013a.797.797 0 0 0-.632-.703 16.856 16.856 0 0 1-5.577-2.349.805.805 0 0 0-.95.058l-3.102 2.57-3.49-3.489 2.57-3.102a.805.805 0 0 0 .049-.96 16.366 16.366 0 0 1-2.347-5.568.805.805 0 0 0-.71-.631l-4.027-.388v-4.954Z" fill="#39574d" fill-rule="evenodd" data-name="Pfad 79220"/><path d="M1546.234 5388.502c7.344 0 13.298-5.954 13.298-13.299 0-7.344-5.954-13.298-13.298-13.298-7.345 0-13.299 5.954-13.299 13.298.009 7.341 5.958 13.29 13.299 13.299Zm0-24.986c6.455 0 11.687 5.232 11.687 11.687 0 6.455-5.232 11.688-11.687 11.688-6.455 0-11.688-5.233-11.688-11.688.007-6.451 5.236-11.68 11.688-11.687Z" fill="#39574d" fill-rule="evenodd" data-name="Pfad 79221"/><path d="M1544.161 5379.03a.805.805 0 0 0 1.125 0l6.658-6.5a.805.805 0 1 0-1.125-1.153l-6.095 5.951-3.133-3.059a.805.805 0 0 0-1.125 1.153l3.695 3.608Z" fill="#39574d" fill-rule="evenodd" data-name="Pfad 79222"/></g></svg>