<svg xmlns="http://www.w3.org/2000/svg" width="43.508" height="40.303" viewBox="1524.257 4201.592 43.508 40.303"><path d="M1567.645 4232.357c-.474-1.773-2.317-2.85-4.195-2.456l-13.089 2.778a3.213 3.213 0 0 0-1.403-3.875l-7.587-4.381a5.76 5.76 0 0 1-.855-.652c-.666-.576-1.496-1.293-3.042-1.457-1.47-.157-3.382.188-5.965 1.082a2.33 2.33 0 0 0-2.298-1.968h-2.628a2.329 2.329 0 0 0-2.326 2.327v12.93a2.329 2.329 0 0 0 2.326 2.326h2.62a2.329 2.329 0 0 0 2.325-2.29c2.093-.294 4.752 1.224 7.329 2.696 2.22 1.268 4.338 2.478 6.107 2.478.333.002.664-.046.983-.143l19.254-5.16a3.46 3.46 0 0 0 2.444-4.235Zm-38.442 5.25h-2.62a.924.924 0 0 1-.923-.923v-12.93c0-.509.414-.922.923-.922h2.62c.51 0 .922.413.923.923v12.93c0 .509-.413.922-.923.922Zm35.635-2.368-19.267 5.16-.032.01c-1.354.433-3.708-.91-5.984-2.21-2.713-1.551-5.51-3.146-8.023-2.895v-10.43c5.732-2.056 6.918-1.033 8.07-.041.33.302.688.572 1.07.806l7.587 4.38a1.804 1.804 0 0 1-1.81 3.12l-6.335-3.657a.702.702 0 0 0-.702 1.215l6.335 3.658a3.188 3.188 0 0 0 3.046.083.753.753 0 0 0 .098-.013l14.846-3.144c1.168-.247 2.263.373 2.55 1.442a2.055 2.055 0 0 1-1.449 2.513Zm-35.775-9.873a1.17 1.17 0 1 1-2.34.007 1.17 1.17 0 0 1 2.34-.007Zm13.853-7.71h1.188c.235.847.573 1.66 1.005 2.425l-.84.84a1.273 1.273 0 0 0-.118 1.678 13.218 13.218 0 0 0 2.604 2.603 1.271 1.271 0 0 0 1.677-.118l.84-.839c.765.432 1.579.77 2.424 1.007v1.188a1.272 1.272 0 0 0 1.104 1.268c1.222.172 2.462.172 3.684 0a1.272 1.272 0 0 0 1.104-1.27v-1.186c.846-.236 1.66-.573 2.424-1.005l.84.84c.45.455 1.168.506 1.677.117a13.194 13.194 0 0 0 2.602-2.605 1.273 1.273 0 0 0-.117-1.677l-.84-.84c.432-.765.77-1.579 1.005-2.424h1.188a1.27 1.27 0 0 0 1.268-1.104 13.208 13.208 0 0 0 0-3.684 1.271 1.271 0 0 0-1.268-1.102h-1.19a10.828 10.828 0 0 0-1.005-2.425l.84-.839a1.273 1.273 0 0 0 .12-1.672 13.175 13.175 0 0 0-2.605-2.604 1.271 1.271 0 0 0-1.677.118l-.84.84a10.846 10.846 0 0 0-2.422-1.01v-1.187a1.272 1.272 0 0 0-1.103-1.27 13.35 13.35 0 0 0-3.684 0 1.273 1.273 0 0 0-1.102 1.27v1.187c-.847.236-1.661.574-2.426 1.006l-.84-.84a1.273 1.273 0 0 0-1.678-.118 13.175 13.175 0 0 0-2.604 2.608 1.272 1.272 0 0 0 .119 1.677l.839.84c-.432.764-.77 1.578-1.005 2.424h-1.188a1.272 1.272 0 0 0-1.27 1.103 13.209 13.209 0 0 0 0 3.684c.088.632.631 1.102 1.27 1.097Zm.106-4.483h1.628a.702.702 0 0 0 .685-.55 9.473 9.473 0 0 1 1.25-3.011.702.702 0 0 0-.097-.872l-1.151-1.152a11.754 11.754 0 0 1 2.179-2.179l1.15 1.152a.702.702 0 0 0 .873.097 9.473 9.473 0 0 1 3.012-1.25.702.702 0 0 0 .549-.68v-1.633a11.92 11.92 0 0 1 3.081 0v1.632c0 .329.228.614.55.685a9.466 9.466 0 0 1 3.01 1.245c.278.176.64.136.873-.097l1.152-1.151c.818.627 1.55 1.36 2.178 2.178l-1.151 1.152a.702.702 0 0 0-.097.872 9.459 9.459 0 0 1 1.25 3.01c.071.32.356.549.684.548h1.628a11.817 11.817 0 0 1 0 3.082h-1.628a.702.702 0 0 0-.685.548 9.473 9.473 0 0 1-1.249 3.015.702.702 0 0 0 .097.872l1.151 1.151c-.628.819-1.36 1.551-2.178 2.179l-1.152-1.15a.702.702 0 0 0-.872-.096 9.467 9.467 0 0 1-3.013 1.249.702.702 0 0 0-.548.684v1.629a11.92 11.92 0 0 1-3.081 0v-1.63a.702.702 0 0 0-.549-.684 9.423 9.423 0 0 1-3.012-1.25.702.702 0 0 0-.872.097l-1.151 1.152a11.754 11.754 0 0 1-2.179-2.179l1.15-1.147a.702.702 0 0 0 .097-.872 9.462 9.462 0 0 1-1.249-3.012.702.702 0 0 0-.685-.55h-1.628a11.81 11.81 0 0 1 0-3.08Zm11.619 8.57a7.027 7.027 0 1 0-7.027-7.026 7.035 7.035 0 0 0 7.027 7.026Zm0-12.65a5.623 5.623 0 1 1-5.624 5.624 5.63 5.63 0 0 1 5.624-5.627Zm-2.918 6.288a.702.702 0 0 1 .992-.992l1.128 1.127 2.692-3.09a.702.702 0 0 1 1.053.922l-3.184 3.653a.702.702 0 0 1-.505.24h-.024a.702.702 0 0 1-.496-.205l-1.656-1.655Z" fill="#39574d" fill-rule="evenodd" data-name="maintenance"/></svg>