<svg xmlns="http://www.w3.org/2000/svg" width="52.131" height="40.596" viewBox="28.303 37.202 52.131 40.596"><g data-name="roof-2"><path d="M71.297 63.264a13.375 13.375 0 1 0-15.838-6.027h-13.2a.52.52 0 0 0-.113.013l-.035.011a.518.518 0 0 0-.071.026l-.038.021a.517.517 0 0 0-.093.068c-.008.007-.016.012-.024.02-.01.01-.016.02-.025.031l-.019.02L28.406 75.53a.521.521 0 0 0 .418.832s27.034-.02 27.105-.057c.287.125.54.315.738.556.41.418.92.938 1.905.938s1.495-.52 1.905-.938c.356-.363.613-.625 1.16-.625.548 0 .805.262 1.161.625.41.418.92.938 1.905.938s1.495-.52 1.905-.938c.356-.363.613-.625 1.16-.625.548 0 .806.262 1.162.625.41.418.92.938 1.905.938s1.495-.52 1.905-.938c.356-.363.613-.625 1.16-.625.548 0 .806.262 1.162.625.41.418.92.938 1.905.938.999 0 1.474-.53 1.856-.954.329-.367.546-.609 1.08-.609a.521.521 0 0 0 .418-.832l-9.024-12.139Zm2.943 5.705a2.802 2.802 0 0 0-.97.446l-.136.093c-.698.57-1.701.57-2.4 0a12.02 12.02 0 0 0-.136-.093 2.765 2.765 0 0 0-1.045-.463l-3.064-4.117c.225.071.46.107.696.105.971 0 1.472-.523 1.874-.942.08-.083.154-.16.228-.23.317-.054.631-.119.941-.195l4.012 5.396Zm-26.285-4.42c.369.263.813.4 1.265.39.971 0 1.472-.522 1.874-.942.345-.36.594-.62 1.12-.62h.007l4.14 5.573a2.76 2.76 0 0 0-1.057.465 11.94 11.94 0 0 0-.136.093c-.697.57-1.7.57-2.398 0l-.136-.093a2.707 2.707 0 0 0-1.446-.514l-3.233-4.352Zm6.671.319c.19.048.386.073.582.072.971 0 1.472-.523 1.874-.943.345-.36.594-.62 1.12-.62.061 0 .122.003.182.011l4.119 5.536a2.722 2.722 0 0 0-1.21.49l-.137.094c-.698.57-1.7.57-2.398 0l-.137-.093a2.815 2.815 0 0 0-.942-.44l-3.053-4.107Zm6.189.041c.126.02.254.03.381.03.972 0 1.472-.522 1.874-.942.163-.19.353-.353.566-.486.228.06.459.115.692.164l3.936 5.291a2.796 2.796 0 0 0-.983.449 12.05 12.05 0 0 0-.136.093c-.698.57-1.701.57-2.4 0l-.135-.093a2.989 2.989 0 0 0-.722-.375l-3.073-4.13Zm-6.089-14.324c0-6.809 5.52-12.328 12.328-12.328 6.809 0 12.328 5.52 12.328 12.328s-5.52 12.328-12.328 12.328c-6.805-.008-12.32-5.523-12.328-12.328Zm7.021 12.27c.232.101.467.195.704.283l-.134.139c-.345.36-.594.62-1.12.62-.527 0-.776-.26-1.121-.62a5.283 5.283 0 0 0-.438-.422 2.239 2.239 0 0 0-.634-.38L55.88 58.28h.245a13.451 13.451 0 0 0 5.621 4.577Zm-7.165-4.576 3.066 4.12a2.156 2.156 0 0 0-.881.456c-.154.132-.3.273-.438.422-.345.36-.595.62-1.12.62-.527 0-.776-.26-1.122-.62a5.282 5.282 0 0 0-.437-.422 2.164 2.164 0 0 0-.852-.448l-3.067-4.128h4.851Zm-6.15 0 3.09 4.159c-.272.089-.525.23-.743.417-.154.132-.3.273-.438.422-.345.36-.594.62-1.12.62-.527 0-.776-.26-1.121-.62a5.28 5.28 0 0 0-.438-.422 2.129 2.129 0 0 0-1.35-.518l-3.016-4.058h5.137Zm-14.93 17.04 8.76-11.83 8.83 11.83h-17.59Zm18.891 0-9.716-13.015a.521.521 0 0 0-.417-.21h-.001a.521.521 0 0 0-.418.211L32.206 75.32H29.86L42.26 58.632l12.398 16.687h-2.265Zm7.34.812c-.356.363-.614.625-1.161.625-.548 0-.805-.262-1.16-.625-.354-.36-.783-.797-1.528-.91l-3.506-4.719a2.696 2.696 0 0 0 1.591.476 2.821 2.821 0 0 0 1.795-.614c.334-.284.76-.436 1.199-.428.048 0 .091.003.135.005l3.954 5.322a2.75 2.75 0 0 0-1.32.868Zm6.131 0c-.356.363-.613.625-1.161.625s-.805-.262-1.16-.625a2.916 2.916 0 0 0-1.157-.82l-3.315-4.462c.287.089.586.133.886.13a2.822 2.822 0 0 0 1.795-.615c.335-.284.76-.436 1.2-.428.107 0 .215.008.322.024l3.94 5.296c-.528.149-.998.454-1.35.875Zm6.132 0c-.356.363-.614.625-1.161.625-.548 0-.805-.262-1.161-.625a2.974 2.974 0 0 0-1.108-.804l-3.288-4.42c.219.049.443.073.667.071a2.822 2.822 0 0 0 1.795-.614c.335-.284.761-.436 1.2-.428l.048.002 4.034 5.422a3.097 3.097 0 0 0-1.026.77Zm6.051.017c-.329.366-.546.608-1.08.608-.548 0-.805-.262-1.161-.625-.365-.371-.809-.823-1.595-.918l-3.275-4.403a2.968 2.968 0 0 0 2.793-.446 1.81 1.81 0 0 1 1.2-.428v-.04L79 75.373c-.37.185-.696.45-.953.775Z" fill="#375752" fill-rule="evenodd" data-name="Pfad 79176"/><path d="M67.054 61.35c5.945 0 10.765-4.82 10.765-10.765S72.999 39.82 67.054 39.82s-10.765 4.82-10.765 10.765c.007 5.942 4.822 10.758 10.765 10.765Zm3.922-1.871-1.56-2.702 2.864-1.653 1.453 2.516a9.754 9.754 0 0 1-2.757 1.839ZM62.63 49.194l3.364-1.942 1.867-1.078a4.854 4.854 0 0 1 6.508 1.585 5.9 5.9 0 0 0-4.652.536l-5.704 3.294-1.383-2.395Zm.843 3.543-2.054 1.186-2.107-3.65 2.054-1.185 2.107 3.649Zm5.852-3.013.597 1.683-2.546 1.47-1.16-1.357 3.11-1.796Zm.573 2.9 1.157 2.003-1.457.841-1.157-2.003 1.457-.84Zm-2.845-11.762a9.716 9.716 0 0 1 7.427 15.989l-1.559-2.7a.521.521 0 0 0-.712-.19l-.252.145-1.156-2.003.017-.01a.52.52 0 0 0 .23-.625l-.805-2.273a4.857 4.857 0 0 1 3.919-.41l1.183.385a.521.521 0 0 0 .612-.756l-.57-.987a5.897 5.897 0 0 0-8.046-2.156l-5.232 3.02-.102-.176a.52.52 0 0 0-.711-.19L58.34 49.63a.52.52 0 0 0-.19.712l2.627 4.552c.144.249.463.334.712.19l2.956-1.706a.521.521 0 0 0 .19-.712l-.101-.176.765-.442 1.565 1.835a.52.52 0 0 0 .657.113l.018-.01 1.156 2.002-.252.146a.521.521 0 0 0-.19.712l1.735 3.007a9.723 9.723 0 1 1-2.935-18.992Z" fill="#375752" fill-rule="evenodd" data-name="Pfad 79178"/></g></svg>