<svg xmlns="http://www.w3.org/2000/svg" width="48.625" height="48.625"><path d="M47.787 27.666h-2.515c-1.58 0-3.091.638-4.192 1.769V16.7a5.868 5.868 0 0 0 5.03-5.801V5.03c0-.926-.75-1.677-1.677-1.677h-.838V.838a.838.838 0 0 0-1.677 0v2.515h-3.353V.838a.838.838 0 0 0-1.677 0v2.515h-.838c-.926 0-1.677.751-1.677 1.677V10.9a5.868 5.868 0 0 0 5.03 5.801v4.557a7.53 7.53 0 0 0-5.869-2.813H31.02a.838.838 0 0 0-.838.838 7.554 7.554 0 0 0 7.545 7.546h1.677V46.11a.838.838 0 0 1-.838.838H19.282v-2.515h13.414a.838.838 0 0 0 .838-.838V40.24a.712.712 0 0 0-.029-.143.713.713 0 0 0-.005-.093l-4.192-14.252a.838.838 0 0 0-.804-.602H5.03c-.372 0-.699.245-.804.602L.034 40.005a.713.713 0 0 0-.005.093.713.713 0 0 0-.029.143v3.354c0 .463.375.838.838.838h13.414v2.515h-1.677a.838.838 0 0 0 0 1.677h25.99a2.515 2.515 0 0 0 2.515-2.515V34.373h1.676a5.875 5.875 0 0 0 5.869-5.869.838.838 0 0 0-.838-.838ZM36.05 10.899V5.03h8.383V10.9a4.192 4.192 0 0 1-8.383 0Zm-4.133 9.222h1.617a5.877 5.877 0 0 1 5.544 3.948l-1.687-1.265a.838.838 0 1 0-1.006 1.34l1.341 1.007a5.878 5.878 0 0 1-5.809-5.03ZM10.165 39.403l.394-3.353h5.37v3.353h-5.764Zm-8.207 0 .987-3.353h5.926l-.394 3.353H1.958Zm2.467-8.384h5.038l-.395 3.354h-5.63l.987-3.354Zm25.672 3.354h-5.631l-.394-3.354h5.038l.987 3.354Zm-7.319 0h-5.172v-3.354h4.778l.394 3.354Zm-5.172-5.03v-2.515h4.284l.296 2.515h-4.58Zm-1.677 0h-4.58l.295-2.515h4.285v2.515Zm0 1.676v3.354h-5.173l.395-3.354h4.778Zm1.677 5.03h5.37l.393 3.354h-5.763V36.05Zm7.452 3.354-.394-3.353h5.925l.987 3.353h-6.518Zm3.558-10.06h-4.742l-.295-2.515h4.298l.74 2.515ZM5.657 26.828h4.299l-.296 2.515H4.918l.74-2.515ZM1.677 41.08h30.18v1.676H1.678V41.08Zm14.252 3.353h1.677v2.515h-1.677v-2.515Zm27.12-11.763.173-.115a.839.839 0 0 0-.931-1.395l-.754.503a4.185 4.185 0 0 1 3.735-2.32h1.592a4.192 4.192 0 0 1-3.815 3.327Zm0 0" fill="#39574d" fill-rule="evenodd" data-name="Pfad 79202"/></svg>