<svg xmlns="http://www.w3.org/2000/svg" width="50.771" height="46.686" viewBox="938.614 4767.157 50.771 46.686"><g data-name="urban-planning"><path d="M938.614 4773.71v35.218c0 2.94 2.17 4.915 5.406 4.915h38.823c.45 0 .819-.369.819-.82v-19.657h-1.638v18.839H944.02c-1.818 0-3.768-.86-3.768-3.277 0-2.416 2.113-3.276 4.095-3.276h.82c.45 0 .819-.368.819-.819v-30.305h36.038v5.734h1.638v-6.553c0-.45-.369-.819-.819-.819h-36.857v-4.914c0-.45-.369-.82-.82-.82h-.819c-3.325 0-5.733 2.753-5.733 6.553Zm5.733-4.915v35.22c-1.679 0-3.096.474-4.095 1.301v-31.607c0-2.891 1.687-4.914 4.095-4.914Z" fill="#39574d" fill-rule="evenodd" data-name="Pfad 79203"/><path d="M988.675 4780.982c-.926-.925-2.548-.925-3.473 0l-15.636 15.636a.965.965 0 0 0-.14.18l-2.628 4.759h-13.85a3.691 3.691 0 0 0-3.686 3.686 3.691 3.691 0 0 0 3.686 3.685h6.142v-1.638h-6.142a2.048 2.048 0 0 1 0-4.095h14.333c.14 0 .27-.033.393-.098l5.177-2.859a.592.592 0 0 0 .18-.139l15.635-15.636a2.457 2.457 0 0 0 0-3.472Zm-16.717 17.872-2.588 1.433 1.433-2.588 12.08-12.08 1.156 1.154-12.081 12.081Zm15.554-15.554-2.318 2.318-1.155-1.155 2.318-2.318c.31-.31.852-.31 1.155 0 .319.32.319.836 0 1.155Z" fill="#39574d" fill-rule="evenodd" data-name="Pfad 79204"/><path d="M960.729 4788.452v8.19c0 .451.368.82.819.82h4.095c.45 0 .819-.369.819-.82v-4.095h3.276c.45 0 .82-.368.82-.819v-3.276c0-.45-.37-.819-.82-.819h-8.19c-.45 0-.82.369-.82.82Zm1.638.82h6.552v1.637h-3.276a.821.821 0 0 0-.82.82v4.095h-2.456v-6.553Z" fill="#39574d" fill-rule="evenodd" data-name="Pfad 79205"/><path d="M974.652 4784.357c.45 0 .82-.369.82-.82v-6.552c0-.45-.37-.819-.82-.819h-8.19c-.45 0-.82.369-.82.82v6.552c0 .45.37.819.82.819h8.19Zm-7.371-6.553h6.552v4.915h-6.552v-4.915Z" fill="#39574d" fill-rule="evenodd" data-name="Pfad 79206"/><path d="M962.367 4776.166h-13.105c-.45 0-.82.369-.82.82v11.466c0 .45.37.82.82.82h9.01c.45 0 .818-.37.818-.82v-2.457h3.277c.45 0 .819-.369.819-.82v-8.19c0-.45-.369-.819-.82-.819Zm-.82 8.19h-3.276c-.45 0-.819.37-.819.82v2.457h-7.371v-9.829h11.467v6.553Z" fill="#39574d" fill-rule="evenodd" data-name="Pfad 79207"/><path d="M960.729 4807.29h1.638v1.638h-1.638v-1.638Z" fill="#39574d" fill-rule="evenodd" data-name="Pfad 79208"/><path d="M948.443 4796.643c0 .45.368.819.819.819h9.01c.45 0 .818-.369.818-.82v-4.095c0-.45-.368-.819-.819-.819h-9.01c-.45 0-.818.369-.818.82v4.095Zm1.638-3.277h7.371v2.458h-7.371v-2.458Z" fill="#39574d" fill-rule="evenodd" data-name="Pfad 79209"/><path d="M974.652 4801.557c-.45 0-.819.369-.819.82v3.275h-3.276a.821.821 0 0 0-.819.82v3.276c0 .45.369.819.82.819h8.19c.45 0 .819-.369.819-.82v-7.37c0-.451-.369-.82-.82-.82h-4.095Zm3.277 7.371h-6.553v-1.638h3.276c.45 0 .82-.368.82-.819v-3.276h2.457v5.733Z" fill="#39574d" fill-rule="evenodd" data-name="Pfad 79210"/></g></svg>