<svg xmlns="http://www.w3.org/2000/svg" width="45.17" height="44.24" viewBox="939.425 5353.83 45.17 44.24"><g data-name="victory"><g data-name="Gruppe 15688"><path d="M945.929 5398.07h-5.79c-.428 0-.714-.286-.714-.715v-22.942c0-.429.286-.715.715-.715h5.789c.429 0 .715.286.715.715v22.942c0 .429-.286.715-.715.715Zm-5.074-1.43h4.36v-21.512h-4.36v21.512Z" fill="#39574d" fill-rule="evenodd" data-name="Pfad 79211"/></g><g data-name="Gruppe 15689"><path d="M973.088 5387.564h-4.932c-.428 0-.714-.286-.714-.715s.286-.715.714-.715h4.932c.429 0 .715.286.715.715s-.286.715-.715.715Z" fill="#39574d" fill-rule="evenodd" data-name="Pfad 79212"/></g><g data-name="Gruppe 15690"><path d="M952.29 5397.641c-.072 0-.143 0-.286-.071l-6.36-2.43c-.287-.072-.43-.358-.43-.644V5376.7c0-.429.286-.715.715-.715h7.647l9.006-3.788c.357-.142.786 0 .929.358.143.357 0 .786-.358.929l-9.148 3.86c-.071.07-.214.07-.286.07h-7.075v16.582l5.789 2.216 17.296-.072c.429 0 .714.286.714.715s-.285.715-.714.715l-17.44.071Z" fill="#39574d" fill-rule="evenodd" data-name="Pfad 79213"/></g><g data-name="Gruppe 15691"><path d="M976.018 5387.492h-6.075c-.429 0-.715-.286-.715-.714 0-.43.286-.715.715-.715h6.075c1 0 1.787-.786 1.787-1.787 0-1-.786-1.787-1.787-1.787h-6.075c-.429 0-.715-.286-.715-.714 0-.43.286-.715.715-.715h6.075c1.716 0 3.216 1.5 3.216 3.216 0 1.715-1.5 3.216-3.216 3.216Z" fill="#39574d" fill-rule="evenodd" data-name="Pfad 79214"/></g><g data-name="Gruppe 15692"><path d="M974.732 5382.49h-8.934c-.429 0-.715-.287-.715-.715 0-.43.286-.715.715-.715h8.934c1 0 1.787-.786 1.787-1.787 0-1-.787-1.787-1.787-1.787h-11.793c-.429 0-.715-.286-.715-.714 0-.43.286-.715.715-.715h11.793c1.715 0 3.216 1.5 3.216 3.216 0 1.715-1.501 3.216-3.216 3.216Z" fill="#39574d" fill-rule="evenodd" data-name="Pfad 79215"/></g><g data-name="Gruppe 15693"><path d="M972.73 5392.567h-6.074c-.43 0-.715-.286-.715-.715s.286-.715.715-.715h6.075c1 0 1.786-.786 1.786-1.787 0-1-.786-1.786-1.786-1.786h-6.075c-.43 0-.715-.286-.715-.715s.286-.715.715-.715h6.075c1.715 0 3.216 1.501 3.216 3.216 0 1.716-1.501 3.217-3.216 3.217Z" fill="#39574d" fill-rule="evenodd" data-name="Pfad 79216"/></g><g data-name="Gruppe 15694"><path d="M970.158 5397.57h-10.364c-.428 0-.714-.286-.714-.715s.286-.715.714-.715h10.364c1 0 1.786-.786 1.786-1.787 0-1-.786-1.786-1.786-1.786h-6.075c-.43 0-.715-.286-.715-.715s.286-.715.715-.715h6.075c1.715 0 3.216 1.501 3.216 3.216 0 1.716-1.501 3.217-3.216 3.217Z" fill="#39574d" fill-rule="evenodd" data-name="Pfad 79217"/></g><g data-name="Gruppe 15695"><path d="M969.3 5367.98c-1.43 0-2.93-.357-4.36-1.5-.214-.143-.286-.358-.286-.572v-10.006c0-.286.143-.5.43-.643.214-.143.5-.072.714.071 2.787 2.073 5.575 1.001 8.576-.071 3.074-1.144 6.576-2.43 9.935.071.214.143.286.358.286.572v10.006c0 .286-.143.5-.43.643-.214.143-.5.072-.714-.071-2.787-2.073-5.575-1-8.505.071-1.787.715-3.716 1.43-5.646 1.43Zm-3.216-2.43c2.716 1.787 5.432.787 8.29-.285 2.86-1.072 5.79-2.144 8.791-.643v-8.363c-2.644-1.786-5.431-.786-8.29.286-2.716 1.001-5.79 2.145-8.791.644v8.362Z" fill="#39574d" fill-rule="evenodd" data-name="Pfad 79218"/></g><g data-name="Gruppe 15696"><path d="M962.94 5377.558c-.43 0-.716-.286-.716-.715v-21.084c0-1.072.858-1.93 1.93-1.93s1.93.858 1.93 1.859v21.084c0 .428-.286.714-.715.714s-.715-.286-.715-.714v-21.013c0-.286-.214-.5-.5-.5-.214 0-.5.286-.5.5v21.084c0 .429-.286.715-.715.715Z" fill="#39574d" fill-rule="evenodd" data-name="Pfad 79219"/></g></g></svg>