<svg width="178" height="401" viewBox="0 0 178 401" fill="none" xmlns="http://www.w3.org/2000/svg">
<path d="M-22 288.216C26.2216 288.216 65.313 249.124 65.313 200.903C65.313 152.681 26.2216 113.59 -22 113.59C-70.2216 113.59 -109.313 152.681 -109.313 200.903C-109.313 249.124 -70.2216 288.216 -22 288.216Z" stroke="#FFFF34" stroke-width="4"/>
<path d="M-22 350.81C60.7919 350.81 127.908 283.694 127.908 200.902C127.908 118.11 60.7919 50.9941 -22 50.9941C-104.792 50.9941 -171.908 118.11 -171.908 200.902C-171.908 283.694 -104.792 350.81 -22 350.81Z" stroke="#FFFF34" stroke-width="4"/>
<path d="M-22 398.902C87.3524 398.902 176 310.255 176 200.902C176 91.55 87.3524 2.90234 -22 2.90234C-131.352 2.90234 -220 91.55 -220 200.902C-220 310.255 -131.352 398.902 -22 398.902Z" stroke="#FFFF34" stroke-width="4"/>
</svg>
