<svg xmlns="http://www.w3.org/2000/svg" width="37.537" height="37.537" viewBox="1256.329 16.732 37.537 37.537"><path d="M1256.329 35.5c0-8.848 0-13.271 2.748-16.02 2.749-2.748 7.173-2.748 16.02-2.748 8.848 0 13.272 0 16.02 2.748 2.749 2.749 2.749 7.172 2.749 16.02 0 8.847 0 13.271-2.749 16.02-2.748 2.748-7.172 2.748-16.02 2.748-8.847 0-13.271 0-16.02-2.748-2.748-2.749-2.748-7.173-2.748-16.02Zm18.768-10.792c.778 0 1.408.63 1.408 1.408v9.74l3.228-3.228a1.407 1.407 0 1 1 1.99 1.99l-5.63 5.631a1.407 1.407 0 0 1-1.991 0l-5.63-5.63a1.408 1.408 0 1 1 1.99-1.991l3.228 3.227v-9.74c0-.777.63-1.407 1.407-1.407Zm-7.507 18.769a1.408 1.408 0 0 0 0 2.815h15.015a1.408 1.408 0 0 0 0-2.815h-15.015Z" fill="#fff" fill-rule="evenodd" data-name="download-square-svgrepo-com"/></svg>