<svg width="64" height="65" viewBox="0 0 64 65" fill="none" xmlns="http://www.w3.org/2000/svg">
<path d="M32 64.04C49.6731 64.04 64 49.7042 64 32.02C64 14.3358 49.6731 0 32 0C14.3269 0 0 14.3358 0 32.02C0 49.7042 14.3269 64.04 32 64.04Z" fill="#FFFF34"/>
<path fill-rule="evenodd" clip-rule="evenodd" d="M21.275 18.6673C21.7334 18.2247 22.2814 17.8855 22.882 17.6725C23.4826 17.4595 24.1218 17.3777 24.7567 17.4326C25.3915 17.4874 26.0073 17.6777 26.5624 17.9906C27.1176 18.3034 27.5992 18.7316 27.975 19.2463L29.961 21.9073C30.6038 22.7463 30.9214 23.7894 30.8553 24.8442C30.7891 25.899 30.3436 26.8943 29.601 27.6463L29.224 28.0213C29.1816 28.1794 29.1775 28.3453 29.212 28.5053C29.312 29.1483 29.849 30.5133 32.104 32.7563C34.359 34.9993 35.733 35.5353 36.385 35.6353C36.5503 35.6708 36.7218 35.666 36.885 35.6213L37.529 34.9803C38.2068 34.3171 39.0808 33.8907 40.0208 33.7645C40.9607 33.6384 41.9162 33.8193 42.745 34.2803L45.761 35.9203C46.3721 36.241 46.8999 36.6999 47.3025 37.2604C47.7051 37.821 47.9714 38.4678 48.08 39.1493C48.1887 39.8309 48.1368 40.5284 47.9284 41.1863C47.7201 41.8443 47.3611 42.4445 46.88 42.9393L44.636 45.1673C43.8895 45.9489 42.8927 46.4443 41.819 46.5673C38.963 46.8333 32.303 46.4943 25.306 39.5363C18.773 33.0363 17.519 27.3763 17.361 24.5853C17.3403 23.9408 17.4578 23.2994 17.7055 22.704C17.9532 22.1086 18.3253 21.5731 18.797 21.1333L21.275 18.6673ZM26.075 20.6673C25.9022 20.4247 25.6797 20.2218 25.4223 20.0721C25.1649 19.9223 24.8785 19.8293 24.5822 19.7991C24.2859 19.7689 23.9866 19.8023 23.7043 19.897C23.4219 19.9917 23.1631 20.1456 22.945 20.3483L20.466 22.8133C20.2331 23.0173 20.0466 23.2687 19.919 23.5507C19.7914 23.8327 19.7256 24.1388 19.726 24.4483C19.852 26.6663 20.865 31.7773 26.977 37.8543C33.389 44.2303 39.312 44.4203 41.6 44.2073C42.1255 44.1352 42.6092 43.8811 42.967 43.4893L45.21 41.2593C45.4293 41.0246 45.5909 40.742 45.682 40.4339C45.7732 40.1258 45.7912 39.8007 45.7349 39.4845C45.6785 39.1682 45.5492 38.8694 45.3572 38.6118C45.1652 38.3542 44.9159 38.1448 44.629 38.0003L41.613 36.3603C41.2318 36.1436 40.7908 36.0558 40.3557 36.1098C39.9206 36.1639 39.5145 36.3569 39.198 36.6603L38.479 37.3753L37.644 36.5353C38.479 37.3753 38.478 37.3763 38.477 37.3773L38.467 37.3873L38.444 37.4083L38.387 37.4583C38.344 37.4943 38.287 37.5343 38.228 37.5763C38.0717 37.6804 37.9039 37.766 37.728 37.8313C37.1855 38.0217 36.6031 38.0692 36.037 37.9693C34.669 37.7593 32.856 36.8263 30.445 34.4293C28.034 32.0323 27.094 30.2293 26.882 28.8623C26.7807 28.2962 26.8286 27.7134 27.021 27.1713C27.0871 26.9952 27.1737 26.8274 27.279 26.6713C27.3159 26.6167 27.3556 26.5639 27.398 26.5133L27.448 26.4563L27.47 26.4333L27.48 26.4233C27.48 26.4233 27.48 26.4233 28.317 27.2603L27.482 26.4203L27.935 25.9703C28.2729 25.6202 28.4723 25.1593 28.4962 24.6732C28.5201 24.1872 28.3669 23.709 28.065 23.3273L26.075 20.6673Z" fill="#14302C"/>
</svg>
