<svg width="524" height="524" viewBox="0 0 524 524" fill="none" xmlns="http://www.w3.org/2000/svg">
<g opacity="0.062">
<path d="M262 377C325.513 377 377 325.513 377 262C377 198.487 325.513 147 262 147C198.487 147 147 198.487 147 262C147 325.513 198.487 377 262 377Z" stroke="white" stroke-width="4"/>
<path d="M262 459C370.8 459 459 370.8 459 262C459 153.2 370.8 65 262 65C153.2 65 65 153.2 65 262C65 370.8 153.2 459 262 459Z" stroke="white" stroke-width="4"/>
<path d="M262 522C405.594 522 522 405.594 522 262C522 118.406 405.594 2 262 2C118.406 2 2 118.406 2 262C2 405.594 118.406 522 262 522Z" stroke="white" stroke-width="4"/>
</g>
</svg>
