<svg width="37" height="31" viewBox="0 0 37 31" fill="none" xmlns="http://www.w3.org/2000/svg">
<path id="hands-holding-svgrepo-com" d="M36.158 10.439C36.146 10.039 36.134 9.63899 36.13 9.23899C36.106 7.32299 36.03 5.75699 35.88 4.31199C35.8158 3.61062 35.7079 2.91394 35.557 2.22599L35.578 2.33699C35.4977 1.82903 35.2998 1.34687 35 0.928988L35.007 0.938988C34.8975 0.802236 34.7505 0.700407 34.584 0.645988H34.58C34.0955 0.448404 33.5712 0.368235 33.0498 0.412032C32.5284 0.455829 32.0248 0.622349 31.58 0.897988L31.595 0.889988C31.168 1.21931 30.8134 1.63311 30.5535 2.10558C30.2935 2.57804 30.1337 3.09901 30.084 3.63599V3.65199L29.467 9.70899C29.0917 9.51181 28.674 9.40885 28.25 9.40899C27.756 9.41015 27.2722 9.54958 26.8534 9.8115C26.4345 10.0734 26.0973 10.4474 25.88 10.891L25.873 10.907L23.99 14.165L20.417 17.578C20.3551 17.6365 20.3022 17.7039 20.26 17.778L19.253 19.52L18.732 19.22C18.714 19.209 18.692 19.21 18.673 19.201C18.5519 19.1416 18.4189 19.1108 18.284 19.1108C18.1492 19.1108 18.0161 19.1416 17.895 19.201C17.877 19.209 17.856 19.209 17.838 19.219L17.738 19.276L17.721 19.286L17.316 19.519L16.314 17.778C16.2708 17.7039 16.2168 17.6365 16.154 17.578L12.58 14.164L10.698 10.906C10.5192 10.5687 10.2752 10.2702 9.98037 10.0276C9.6855 9.78512 9.34551 9.6034 8.98003 9.49299H8.95903C8.74805 9.43627 8.5305 9.40769 8.31203 9.40799C7.88508 9.40716 7.46493 9.51487 7.09103 9.72099L7.10403 9.71499L6.48803 3.66599C6.44074 3.12566 6.28239 2.60091 6.0229 2.12461C5.76342 1.64831 5.40838 1.23072 4.98003 0.897988L4.97203 0.891988C4.52655 0.617747 4.02244 0.452933 3.50099 0.411043C2.97954 0.369153 2.45558 0.45138 1.97203 0.650988L1.99403 0.642988C1.82555 0.696213 1.67661 0.798172 1.56603 0.935988C1.26281 1.35873 1.06218 1.84627 0.980032 2.35999V2.37899C0.845831 2.99377 0.749979 3.61631 0.693032 4.24299V4.30999C0.543032 5.75799 0.464032 7.32399 0.443032 9.23599C0.443032 9.63599 0.426032 10.027 0.415032 10.424C0.392032 10.805 0.379032 11.249 0.379032 11.698C0.378557 12.5363 0.425298 13.3739 0.519032 14.207L0.509032 14.107C0.917126 16.9988 2.35868 19.6449 4.56703 21.556L4.58303 21.569C5.82179 22.5466 6.95344 23.6528 7.95903 24.869L7.98903 24.907L7.26703 25.324C7.16354 25.384 7.0729 25.4638 7.00029 25.5589C6.92768 25.654 6.87453 25.7624 6.84388 25.8781C6.81323 25.9937 6.80568 26.1142 6.82167 26.2328C6.83765 26.3514 6.87685 26.4656 6.93703 26.569L8.87903 29.933C8.99797 30.1394 9.1934 30.2906 9.42303 30.354H9.42903C9.50433 30.3743 9.58203 30.3844 9.66003 30.384H9.66603C9.82627 30.3843 9.98369 30.3419 10.122 30.261L18.295 25.542L26.465 30.261C26.6019 30.3407 26.7576 30.3825 26.916 30.382H26.923C27.0029 30.3822 27.0823 30.371 27.159 30.349H27.153C27.3843 30.2869 27.5818 30.1364 27.703 29.93L29.645 26.566C29.7647 26.358 29.7973 26.1111 29.7357 25.8792C29.674 25.6473 29.5232 25.4491 29.316 25.328L28.58 24.908C29.5882 23.6826 30.7236 22.5677 31.967 21.582L32.013 21.547C34.2017 19.6542 35.6346 17.0358 36.049 14.172L36.056 14.108C36.1461 13.3065 36.1905 12.5005 36.189 11.694C36.189 11.2527 36.176 10.8143 36.15 10.379V10.439H36.158ZM5.73303 20.169C3.89021 18.5553 2.67856 16.341 2.31303 13.919L2.30603 13.862C2.22789 13.1413 2.18949 12.4169 2.19103 11.692C2.19103 11.2647 2.20403 10.8413 2.23003 10.422V10.48C2.24303 10.072 2.25503 9.66499 2.25903 9.25699C2.28003 7.40099 2.35903 5.88899 2.50003 4.49799C2.55397 3.87303 2.64749 3.25211 2.78003 2.63899L2.76203 2.73899C2.79366 2.58411 2.83305 2.43092 2.88003 2.27999C3.06041 2.22599 3.24976 2.20861 3.43695 2.22888C3.62414 2.24914 3.80539 2.30664 3.97003 2.39799H3.96303C4.37738 2.76487 4.63421 3.27746 4.68003 3.82899V3.83699L5.54303 12.33C5.55629 12.4589 5.59722 12.5834 5.66303 12.695L6.14903 13.537L9.55503 19.437C9.65265 19.6128 9.80594 19.7512 9.9908 19.8305C10.1757 19.9097 10.3816 19.9252 10.5763 19.8746C10.7709 19.824 10.9432 19.7101 11.0661 19.5509C11.189 19.3917 11.2554 19.1961 11.255 18.995C11.2548 18.829 11.2095 18.6662 11.124 18.524L7.71803 12.624C7.33603 11.96 7.56203 11.513 7.90303 11.317C8.24403 11.121 8.74303 11.146 9.12603 11.811L11.073 15.181C11.116 15.2548 11.1692 15.3221 11.231 15.381L14.806 18.798L15.746 20.426L9.56303 23.998C8.45516 22.5894 7.18544 21.3159 5.78003 20.204L5.73203 20.168L5.73303 20.169ZM26.58 28.236L18.747 23.711C18.728 23.7 18.706 23.7 18.685 23.69C18.6094 23.6516 18.5285 23.6247 18.445 23.61C18.4119 23.6057 18.3785 23.6034 18.345 23.603H18.28C18.2169 23.6031 18.1539 23.6095 18.092 23.622H18.098C18.0573 23.6326 18.0172 23.6457 17.978 23.661H17.984C17.9331 23.6728 17.8833 23.6888 17.835 23.709H17.841L9.99203 28.241L8.95803 26.451L18.287 21.066L27.613 26.451L26.58 28.236ZM34.266 13.863C33.9162 16.2888 32.7162 18.5116 30.88 20.135L30.869 20.145C29.45 21.2576 28.1666 22.533 27.045 23.945L27.009 23.992L20.826 20.423L21.764 18.798L25.336 15.384C25.3979 15.3252 25.4511 15.2578 25.494 15.184L27.436 11.814C27.5685 11.5482 27.7979 11.3434 28.077 11.242H28.085C28.1474 11.2256 28.2116 11.2175 28.276 11.218C28.4132 11.2177 28.5479 11.2543 28.666 11.324C29.006 11.524 29.233 11.966 28.847 12.631L25.447 18.531C25.366 18.6696 25.3235 18.8274 25.324 18.988C25.3236 19.1882 25.3893 19.3829 25.5109 19.5419C25.6325 19.7008 25.8033 19.8152 25.9966 19.8671C26.19 19.919 26.395 19.9055 26.5799 19.8288C26.7648 19.7521 26.9192 19.6165 27.019 19.443L30.908 12.701C30.9736 12.592 31.0136 12.4696 31.025 12.343L31.892 3.83599C31.9364 3.284 32.1896 2.76971 32.6 2.39799C32.8093 2.27994 33.0457 2.21826 33.286 2.21899C33.4254 2.21909 33.5639 2.23999 33.697 2.28099H33.687C33.7362 2.43364 33.7769 2.58887 33.809 2.74599L33.815 2.77699C33.9343 3.32545 34.0188 3.88089 34.068 4.43999V4.49699C34.21 5.88499 34.288 7.39699 34.309 9.25699C34.309 9.66999 34.326 10.082 34.337 10.495C34.361 10.858 34.375 11.281 34.375 11.707C34.3753 12.4578 34.3332 13.208 34.249 13.954L34.257 13.863H34.266Z" fill="#285F57" stroke="white" stroke-width="0.2"/>
</svg>
