<svg width="53" height="54" viewBox="0 0 53 54" fill="none" xmlns="http://www.w3.org/2000/svg">
<g id="youtube-round-svgrepo-com">
<path id="Path 79261" d="M22.922 32.0927L31.578 27.0107L22.922 21.9287V32.0927Z" fill="white"/>
<path id="Path 79262" d="M26.444 0.557617C22.9715 0.557355 19.5329 1.24111 16.3247 2.56985C13.1165 3.8986 10.2015 5.84629 7.74605 8.30171C5.29063 10.7571 3.34293 13.6722 2.01419 16.8804C0.685449 20.0886 0.00169052 23.5271 0.0019532 26.9996C0.00169052 30.4721 0.685449 33.9106 2.01419 37.1189C3.34293 40.3271 5.29063 43.2421 7.74605 45.6975C10.2015 48.1529 13.1165 50.1006 16.3247 51.4294C19.5329 52.7581 22.9715 53.4419 26.444 53.4416C29.9164 53.4419 33.355 52.7581 36.5632 51.4294C39.7714 50.1006 42.6864 48.1529 45.1419 45.6975C47.5973 43.2421 49.545 40.3271 50.8737 37.1189C52.2025 33.9106 52.8862 30.4721 52.886 26.9996C52.8862 23.5271 52.2025 20.0886 50.8737 16.8804C49.545 13.6722 47.5973 10.7571 45.1419 8.30171C42.6864 5.84629 39.7714 3.8986 36.5632 2.56985C33.355 1.24111 29.9164 0.557355 26.444 0.557617ZM39.665 31.7306C39.665 36.2856 35.11 36.2856 35.11 36.2856H17.778C13.223 36.2856 13.2229 31.7306 13.2229 31.7306V22.2796C13.2229 17.7246 17.778 17.7246 17.778 17.7246H35.11C39.665 17.7246 39.665 22.2796 39.665 22.2796V31.7306Z" fill="white"/>
<path id="Ellipse 22" d="M26 51C39.2548 51 50 40.2548 50 27C50 13.7452 39.2548 3 26 3C12.7452 3 2 13.7452 2 27C2 40.2548 12.7452 51 26 51Z" fill="white"/>
<g id="linked-in-logo-of-two-letters-svgrepo-com">
<g id="Group 15752">
<g id="Group">
<path id="Path 79263" d="M16.8459 36.0929H19.7389C19.9307 36.0929 20.1146 36.0168 20.2502 35.8812C20.3858 35.7456 20.4619 35.5617 20.4619 35.3699V22.7249C20.4619 22.5332 20.3858 22.3493 20.2502 22.2137C20.1146 22.0781 19.9307 22.002 19.7389 22.002H16.8459C16.6542 22.002 16.4703 22.0781 16.3347 22.2137C16.1991 22.3493 16.1229 22.5332 16.1229 22.7249V35.3709C16.1232 35.5625 16.1995 35.7462 16.335 35.8815C16.4706 36.0169 16.6543 36.0929 16.8459 36.0929Z" fill="#193D38"/>
<g id="Group_2" filter="url(#filter0_d_1_5119)">
<path id="Path 79263_2" d="M16.8459 36.0949H19.7389C19.9307 36.0949 20.1146 36.0187 20.2502 35.8831C20.3858 35.7475 20.4619 35.5637 20.4619 35.3719V22.7269C20.4619 22.5351 20.3858 22.3513 20.2502 22.2157C20.1146 22.0801 19.9307 22.0039 19.7389 22.0039H16.8459C16.6542 22.0039 16.4703 22.0801 16.3347 22.2157C16.1991 22.3513 16.1229 22.5351 16.1229 22.7269V35.3729C16.1232 35.5645 16.1995 35.7481 16.335 35.8835C16.4706 36.0189 16.6543 36.0949 16.8459 36.0949Z" fill="white"/>
</g>
</g>
<g id="Group_3">
<path id="Path 79264" d="M16.8459 19.7777H19.7389C19.9307 19.7777 20.1146 19.7015 20.2502 19.5659C20.3858 19.4303 20.4619 19.2464 20.4619 19.0547V16.4867C20.4619 16.2949 20.3858 16.111 20.2502 15.9754C20.1146 15.8398 19.9307 15.7637 19.7389 15.7637H16.8459C16.6542 15.7637 16.4703 15.8398 16.3347 15.9754C16.1991 16.111 16.1229 16.2949 16.1229 16.4867V19.0557C16.1232 19.2472 16.1995 19.4309 16.335 19.5663C16.4706 19.7016 16.6543 19.7777 16.8459 19.7777Z" fill="#193D38"/>
<g id="Group_4" filter="url(#filter1_d_1_5119)">
<path id="Path 79264_2" d="M16.8459 19.7835H19.7389C19.9307 19.7835 20.1146 19.7074 20.2502 19.5718C20.3858 19.4362 20.4619 19.2523 20.4619 19.0605V16.4925C20.4619 16.3008 20.3858 16.1169 20.2502 15.9813C20.1146 15.8457 19.9307 15.7695 19.7389 15.7695H16.8459C16.6542 15.7695 16.4703 15.8457 16.3347 15.9813C16.1991 16.1169 16.1229 16.3008 16.1229 16.4925V19.0615C16.1232 19.2531 16.1995 19.4367 16.335 19.5721C16.4706 19.7075 16.6543 19.7835 16.8459 19.7835Z" fill="white"/>
</g>
</g>
<g id="Group_5">
<path id="Path 79265" d="M37.2879 23.4674C36.8114 22.88 36.1914 22.4253 35.488 22.1474C34.6582 21.7952 33.7643 21.6192 32.863 21.6304C31.9272 21.6193 31.0003 21.8127 30.1471 22.197C29.2938 22.5813 28.5348 23.1473 27.923 23.8554C27.654 24.1554 27.459 24.0864 27.459 23.6864V22.7234C27.459 22.6284 27.4402 22.5344 27.4039 22.4467C27.3676 22.359 27.3143 22.2793 27.2472 22.2121C27.1801 22.145 27.1004 22.0918 27.0126 22.0554C26.9249 22.0191 26.8309 22.0004 26.736 22.0004H24.152C24.057 22.0004 23.963 22.0191 23.8753 22.0554C23.7876 22.0918 23.7079 22.145 23.6407 22.2121C23.5736 22.2793 23.5203 22.359 23.484 22.4467C23.4477 22.5344 23.429 22.6284 23.429 22.7234V35.3694C23.429 35.4643 23.4477 35.5583 23.484 35.6461C23.5203 35.7338 23.5736 35.8135 23.6407 35.8806C23.7079 35.9478 23.7876 36.001 23.8753 36.0374C23.963 36.0737 24.057 36.0924 24.152 36.0924H27.045C27.1399 36.0924 27.2339 36.0737 27.3216 36.0374C27.4094 36.001 27.4891 35.9478 27.5562 35.8806C27.6233 35.8135 27.6766 35.7338 27.7129 35.6461C27.7493 35.5583 27.768 35.4643 27.768 35.3694V30.9694C27.7096 29.7045 27.8212 28.4375 28.1 27.2024C28.3127 26.534 28.7451 25.9571 29.327 25.5654C29.9208 25.1544 30.6278 24.9384 31.35 24.9474C31.8843 24.9321 32.4101 25.083 32.8549 25.3794C33.2771 25.6765 33.5926 26.1014 33.755 26.5914C34.0005 27.7189 34.094 28.8741 34.033 30.0264V35.3664C34.033 35.5581 34.1091 35.742 34.2447 35.8776C34.3803 36.0132 34.5642 36.0894 34.756 36.0894H37.649C37.8407 36.0894 38.0246 36.0132 38.1602 35.8776C38.2958 35.742 38.3719 35.5581 38.3719 35.3664V28.2054C38.3978 27.2269 38.3177 26.2486 38.1329 25.2874C37.9833 24.6278 37.6952 24.0074 37.2879 23.4674Z" fill="#193D38"/>
<g id="Group_6" filter="url(#filter2_d_1_5119)">
<path id="Path 79265_2" d="M37.293 23.4762C36.8164 22.8888 36.1965 22.4341 35.493 22.1562C34.6632 21.804 33.7693 21.628 32.868 21.6392C31.9322 21.6281 31.0053 21.8215 30.1521 22.2058C29.2988 22.5901 28.5398 23.1561 27.928 23.8642C27.659 24.1642 27.464 24.0952 27.464 23.6952V22.7322C27.464 22.6372 27.4453 22.5432 27.4089 22.4555C27.3726 22.3678 27.3193 22.2881 27.2522 22.2209C27.1851 22.1538 27.1054 22.1005 27.0176 22.0642C26.9299 22.0279 26.8359 22.0092 26.741 22.0092H24.157C24.062 22.0092 23.968 22.0279 23.8803 22.0642C23.7926 22.1005 23.7129 22.1538 23.6457 22.2209C23.5786 22.2881 23.5253 22.3678 23.489 22.4555C23.4527 22.5432 23.434 22.6372 23.434 22.7322V35.3782C23.434 35.4731 23.4527 35.5671 23.489 35.6548C23.5253 35.7426 23.5786 35.8223 23.6457 35.8894C23.7129 35.9565 23.7926 36.0098 23.8803 36.0461C23.968 36.0825 24.062 36.1012 24.157 36.1012H27.05C27.1449 36.1012 27.2389 36.0825 27.3266 36.0461C27.4144 36.0098 27.4941 35.9565 27.5612 35.8894C27.6283 35.8223 27.6816 35.7426 27.7179 35.6548C27.7543 35.5671 27.773 35.4731 27.773 35.3782V30.9782C27.7146 29.7133 27.8262 28.4463 28.105 27.2112C28.3177 26.5428 28.7501 25.9659 29.332 25.5742C29.9258 25.1632 30.6328 24.9472 31.355 24.9562C31.8893 24.9409 32.4151 25.0918 32.86 25.3882C33.2821 25.6853 33.5976 26.1102 33.76 26.6002C34.0055 27.7276 34.099 28.8829 34.038 30.0352V35.3752C34.038 35.5669 34.1141 35.7508 34.2497 35.8864C34.3853 36.022 34.5692 36.0982 34.761 36.0982H37.654C37.8457 36.0982 38.0296 36.022 38.1652 35.8864C38.3008 35.7508 38.377 35.5669 38.377 35.3752V28.2142C38.4028 27.2357 38.3227 26.2574 38.138 25.2962C37.9883 24.6365 37.7002 24.0162 37.293 23.4762Z" fill="white"/>
</g>
</g>
</g>
</g>
</g>
<defs>
<filter id="filter0_d_1_5119" x="10.1229" y="19.0039" width="16.339" height="26.0908" filterUnits="userSpaceOnUse" color-interpolation-filters="sRGB">
<feFlood flood-opacity="0" result="BackgroundImageFix"/>
<feColorMatrix in="SourceAlpha" type="matrix" values="0 0 0 0 0 0 0 0 0 0 0 0 0 0 0 0 0 0 127 0" result="hardAlpha"/>
<feOffset dy="3"/>
<feGaussianBlur stdDeviation="3"/>
<feColorMatrix type="matrix" values="0 0 0 0 0 0 0 0 0 0 0 0 0 0 0 0 0 0 0.161 0"/>
<feBlend mode="normal" in2="BackgroundImageFix" result="effect1_dropShadow_1_5119"/>
<feBlend mode="normal" in="SourceGraphic" in2="effect1_dropShadow_1_5119" result="shape"/>
</filter>
<filter id="filter1_d_1_5119" x="10.1229" y="12.7695" width="16.339" height="16.0137" filterUnits="userSpaceOnUse" color-interpolation-filters="sRGB">
<feFlood flood-opacity="0" result="BackgroundImageFix"/>
<feColorMatrix in="SourceAlpha" type="matrix" values="0 0 0 0 0 0 0 0 0 0 0 0 0 0 0 0 0 0 127 0" result="hardAlpha"/>
<feOffset dy="3"/>
<feGaussianBlur stdDeviation="3"/>
<feColorMatrix type="matrix" values="0 0 0 0 0 0 0 0 0 0 0 0 0 0 0 0 0 0 0.161 0"/>
<feBlend mode="normal" in2="BackgroundImageFix" result="effect1_dropShadow_1_5119"/>
<feBlend mode="normal" in="SourceGraphic" in2="effect1_dropShadow_1_5119" result="shape"/>
</filter>
<filter id="filter2_d_1_5119" x="17.434" y="18.6387" width="26.9478" height="26.4629" filterUnits="userSpaceOnUse" color-interpolation-filters="sRGB">
<feFlood flood-opacity="0" result="BackgroundImageFix"/>
<feColorMatrix in="SourceAlpha" type="matrix" values="0 0 0 0 0 0 0 0 0 0 0 0 0 0 0 0 0 0 127 0" result="hardAlpha"/>
<feOffset dy="3"/>
<feGaussianBlur stdDeviation="3"/>
<feColorMatrix type="matrix" values="0 0 0 0 0 0 0 0 0 0 0 0 0 0 0 0 0 0 0.161 0"/>
<feBlend mode="normal" in2="BackgroundImageFix" result="effect1_dropShadow_1_5119"/>
<feBlend mode="normal" in="SourceGraphic" in2="effect1_dropShadow_1_5119" result="shape"/>
</filter>
</defs>
</svg>
