<svg xmlns="http://www.w3.org/2000/svg" xmlns:xlink="http://www.w3.org/1999/xlink" width="54" height="54" viewBox="0 0 54 54">
  <defs>
    <filter id="Path_79266">
      <feOffset dy="3" input="SourceAlpha"/>
      <feGaussianBlur stdDeviation="3" result="blur"/>
      <feFlood flood-opacity="0.071" result="color"/>
      <feComposite operator="out" in="SourceGraphic" in2="blur"/>
      <feComposite operator="in" in="color"/>
      <feComposite operator="in" in2="SourceGraphic"/>
    </filter>
    <filter id="Path_79267">
      <feOffset dy="3" input="SourceAlpha"/>
      <feGaussianBlur stdDeviation="3" result="blur-2"/>
      <feFlood flood-opacity="0.071" result="color-2"/>
      <feComposite operator="out" in="SourceGraphic" in2="blur-2"/>
      <feComposite operator="in" in="color-2"/>
      <feComposite operator="in" in2="SourceGraphic"/>
    </filter>
    <filter id="Path_79268">
      <feOffset dy="3" input="SourceAlpha"/>
      <feGaussianBlur stdDeviation="3" result="blur-3"/>
      <feFlood flood-opacity="0.071" result="color-3"/>
      <feComposite operator="out" in="SourceGraphic" in2="blur-3"/>
      <feComposite operator="in" in="color-3"/>
      <feComposite operator="in" in2="SourceGraphic"/>
    </filter>
  </defs>
  <g id="instagram-svgrepo-com" transform="translate(-3.887 -3.887)">
    <circle id="Ellipse_23" data-name="Ellipse 23" cx="27" cy="27" r="27" transform="translate(3.887 3.887)" fill="#fff"/>
    <g id="Group_15753" data-name="Group 15753" transform="translate(3.217 3.217)">
      <g data-type="innerShadowGroup">
        <path id="Path_79266-2" data-name="Path 79266" d="M24.915,14.327c3.448,0,3.857.013,5.219.075a7.148,7.148,0,0,1,2.4.445A4.277,4.277,0,0,1,34.983,17.3a7.148,7.148,0,0,1,.445,2.4c.062,1.362.075,1.77.075,5.219s-.013,3.857-.075,5.219a7.147,7.147,0,0,1-.445,2.4,4.276,4.276,0,0,1-2.451,2.451,7.145,7.145,0,0,1-2.4.445c-1.362.062-1.77.075-5.219.075s-3.857-.013-5.219-.075a7.145,7.145,0,0,1-2.4-.445,4.277,4.277,0,0,1-2.451-2.451,7.147,7.147,0,0,1-.445-2.4c-.062-1.362-.075-1.77-.075-5.219s.013-3.857.075-5.219a7.148,7.148,0,0,1,.445-2.4A4.278,4.278,0,0,1,17.3,14.847a7.148,7.148,0,0,1,2.4-.445C21.058,14.34,21.466,14.327,24.915,14.327Zm0-2.327c-3.507,0-3.947.015-5.325.078a9.479,9.479,0,0,0-3.135.6,6.6,6.6,0,0,0-3.777,3.777,9.478,9.478,0,0,0-.6,3.135C12.015,20.968,12,21.407,12,24.915s.015,3.947.078,5.325a9.478,9.478,0,0,0,.6,3.135,6.6,6.6,0,0,0,3.777,3.777,9.479,9.479,0,0,0,3.135.6c1.377.063,1.817.078,5.325.078s3.947-.015,5.325-.078a9.479,9.479,0,0,0,3.135-.6,6.6,6.6,0,0,0,3.777-3.777,9.478,9.478,0,0,0,.6-3.135c.063-1.377.078-1.817.078-5.325s-.015-3.947-.078-5.325a9.478,9.478,0,0,0-.6-3.135,6.6,6.6,0,0,0-3.777-3.777,9.479,9.479,0,0,0-3.135-.6C28.862,12.015,28.422,12,24.915,12Z" transform="translate(2.755 2.755)" fill="#193d38"/>
        <g transform="matrix(1, 0, 0, 1, 0.67, 0.67)" filter="url(#Path_79266)">
          <path id="Path_79266-3" data-name="Path 79266" d="M24.915,14.327c3.448,0,3.857.013,5.219.075a7.148,7.148,0,0,1,2.4.445A4.277,4.277,0,0,1,34.983,17.3a7.148,7.148,0,0,1,.445,2.4c.062,1.362.075,1.77.075,5.219s-.013,3.857-.075,5.219a7.147,7.147,0,0,1-.445,2.4,4.276,4.276,0,0,1-2.451,2.451,7.145,7.145,0,0,1-2.4.445c-1.362.062-1.77.075-5.219.075s-3.857-.013-5.219-.075a7.145,7.145,0,0,1-2.4-.445,4.277,4.277,0,0,1-2.451-2.451,7.147,7.147,0,0,1-.445-2.4c-.062-1.362-.075-1.77-.075-5.219s.013-3.857.075-5.219a7.148,7.148,0,0,1,.445-2.4A4.278,4.278,0,0,1,17.3,14.847a7.148,7.148,0,0,1,2.4-.445C21.058,14.34,21.466,14.327,24.915,14.327Zm0-2.327c-3.507,0-3.947.015-5.325.078a9.479,9.479,0,0,0-3.135.6,6.6,6.6,0,0,0-3.777,3.777,9.478,9.478,0,0,0-.6,3.135C12.015,20.968,12,21.407,12,24.915s.015,3.947.078,5.325a9.478,9.478,0,0,0,.6,3.135,6.6,6.6,0,0,0,3.777,3.777,9.479,9.479,0,0,0,3.135.6c1.377.063,1.817.078,5.325.078s3.947-.015,5.325-.078a9.479,9.479,0,0,0,3.135-.6,6.6,6.6,0,0,0,3.777-3.777,9.478,9.478,0,0,0,.6-3.135c.063-1.377.078-1.817.078-5.325s-.015-3.947-.078-5.325a9.478,9.478,0,0,0-.6-3.135,6.6,6.6,0,0,0-3.777-3.777,9.479,9.479,0,0,0-3.135-.6C28.862,12.015,28.422,12,24.915,12Z" transform="translate(2.09 2.09)" fill="#fff"/>
        </g>
      </g>
      <g data-type="innerShadowGroup">
        <path id="Path_79267-2" data-name="Path 79267" d="M24.476,17.843a6.632,6.632,0,1,0,6.632,6.632A6.632,6.632,0,0,0,24.476,17.843Zm0,10.937a4.3,4.3,0,1,1,4.3-4.3A4.305,4.305,0,0,1,24.476,28.78Z" transform="translate(3.2 3.2)" fill="#193d38"/>
        <g transform="matrix(1, 0, 0, 1, 0.67, 0.67)" filter="url(#Path_79267)">
          <path id="Path_79267-3" data-name="Path 79267" d="M24.476,17.843a6.632,6.632,0,1,0,6.632,6.632A6.632,6.632,0,0,0,24.476,17.843Zm0,10.937a4.3,4.3,0,1,1,4.3-4.3A4.305,4.305,0,0,1,24.476,28.78Z" transform="translate(2.53 2.53)" fill="#fff"/>
        </g>
      </g>
      <g data-type="innerShadowGroup">
        <path id="Path_79268-2" data-name="Path 79268" d="M32.07,17.706a1.55,1.55,0,1,1-1.55-1.55A1.55,1.55,0,0,1,32.07,17.706Z" transform="translate(4.049 3.071)" fill="#193d38"/>
        <g transform="matrix(1, 0, 0, 1, 0.67, 0.67)" filter="url(#Path_79268)">
          <path id="Path_79268-3" data-name="Path 79268" d="M32.07,17.706a1.55,1.55,0,1,1-1.55-1.55A1.55,1.55,0,0,1,32.07,17.706Z" transform="translate(3.38 2.4)" fill="#fff"/>
        </g>
      </g>
    </g>
  </g>
</svg>
