<svg width="54" height="54" viewBox="0 0 54 54" fill="none" xmlns="http://www.w3.org/2000/svg">
<g id="instagram-svgrepo-com">
<path id="Ellipse 23" d="M27 54C41.9117 54 54 41.9117 54 27C54 12.0883 41.9117 0 27 0C12.0883 0 0 12.0883 0 27C0 41.9117 12.0883 54 27 54Z" fill="white"/>
<g id="Group 15753">
<g id="Group">
<path id="Path 79266" d="M27 16.412C30.448 16.412 30.857 16.425 32.219 16.487C33.0386 16.4966 33.8504 16.6471 34.619 16.932C35.1758 17.1473 35.6813 17.4768 36.1031 17.8992C36.5249 18.3217 36.8536 18.8278 37.068 19.385C37.3528 20.1535 37.5033 20.9654 37.513 21.785C37.575 23.147 37.588 23.555 37.588 27.004C37.588 30.453 37.575 30.861 37.513 32.223C37.5033 33.0426 37.3528 33.8544 37.068 34.623C36.8532 35.18 36.5241 35.6858 36.102 36.108C35.6798 36.5301 35.174 36.8591 34.617 37.074C33.8484 37.3589 33.0366 37.5094 32.217 37.519C30.855 37.581 30.447 37.594 26.998 37.594C23.549 37.594 23.141 37.581 21.779 37.519C20.9594 37.5094 20.1475 37.3589 19.379 37.074C18.822 36.8591 18.3162 36.53 17.894 36.1079C17.4719 35.6858 17.1428 35.1799 16.928 34.623C16.6431 33.8544 16.4926 33.0426 16.483 32.223C16.421 30.861 16.408 30.453 16.408 27.004C16.408 23.555 16.421 23.147 16.483 21.785C16.4926 20.9654 16.6431 20.1535 16.928 19.385C17.1433 18.8271 17.4732 18.3205 17.8964 17.898C18.3196 17.4755 18.8267 17.1464 19.385 16.932C20.1535 16.6471 20.9654 16.4966 21.785 16.487C23.143 16.425 23.551 16.412 27 16.412ZM27 14.085C23.493 14.085 23.053 14.1 21.675 14.163C20.6036 14.1843 19.5435 14.3872 18.54 14.763C17.682 15.0946 16.9027 15.6019 16.2523 16.2523C15.6019 16.9027 15.0946 17.682 14.763 18.54C14.3872 19.5435 14.1843 20.6036 14.163 21.675C14.1 23.053 14.085 23.492 14.085 27C14.085 30.508 14.1 30.947 14.163 32.325C14.1843 33.3964 14.3872 34.4564 14.763 35.46C15.0946 36.318 15.6019 37.0972 16.2523 37.7476C16.9027 38.3981 17.682 38.9054 18.54 39.237C19.5435 39.6127 20.6036 39.8156 21.675 39.837C23.052 39.9 23.492 39.915 27 39.915C30.508 39.915 30.947 39.9 32.325 39.837C33.3964 39.8156 34.4564 39.6127 35.46 39.237C36.318 38.9054 37.0972 38.3981 37.7476 37.7476C38.3981 37.0972 38.9054 36.318 39.237 35.46C39.6128 34.4564 39.8156 33.3964 39.837 32.325C39.9 30.948 39.915 30.508 39.915 27C39.915 23.492 39.9 23.053 39.837 21.675C39.8156 20.6036 39.6128 19.5435 39.237 18.54C38.9054 17.682 38.3981 16.9027 37.7476 16.2523C37.0972 15.6019 36.318 15.0946 35.46 14.763C34.4564 14.3872 33.3964 14.1843 32.325 14.163C30.947 14.1 30.507 14.085 27 14.085Z" fill="#193D38"/>
<g id="Group_2" filter="url(#filter0_d_1_5137)">
<path id="Path 79266_2" d="M27.005 16.4168C30.453 16.4168 30.862 16.4298 32.224 16.4918C33.0436 16.5015 33.8554 16.652 34.624 16.9368C35.1808 17.1522 35.6863 17.4817 36.1081 17.9041C36.5299 18.3266 36.8586 18.8327 37.073 19.3898C37.3578 20.1584 37.5083 20.9702 37.518 21.7898C37.58 23.1518 37.593 23.5598 37.593 27.0088C37.593 30.4578 37.58 30.8658 37.518 32.2278C37.5084 33.0474 37.3578 33.8593 37.073 34.6278C36.8582 35.1848 36.5291 35.6907 36.107 36.1128C35.6848 36.535 35.179 36.864 34.622 37.0788C33.8534 37.3637 33.0416 37.5143 32.222 37.5238C30.86 37.5858 30.452 37.5988 27.003 37.5988C23.554 37.5988 23.146 37.5858 21.784 37.5238C20.9644 37.5143 20.1525 37.3637 19.384 37.0788C18.827 36.864 18.3212 36.5349 17.899 36.1128C17.4769 35.6906 17.1478 35.1848 16.933 34.6278C16.6481 33.8593 16.4976 33.0474 16.488 32.2278C16.426 30.8658 16.413 30.4578 16.413 27.0088C16.413 23.5598 16.426 23.1518 16.488 21.7898C16.4976 20.9702 16.6481 20.1584 16.933 19.3898C17.1483 18.8319 17.4782 18.3254 17.9014 17.9029C18.3246 17.4804 18.8317 17.1513 19.39 16.9368C20.1585 16.652 20.9704 16.5015 21.79 16.4918C23.148 16.4298 23.556 16.4168 27.005 16.4168ZM27.005 14.0898C23.498 14.0898 23.058 14.1048 21.68 14.1678C20.6086 14.1892 19.5485 14.3921 18.545 14.7678C17.687 15.0994 16.9077 15.6067 16.2573 16.2572C15.6069 16.9076 15.0996 17.6868 14.768 18.5448C14.3922 19.5484 14.1893 20.6084 14.168 21.6798C14.105 23.0578 14.09 23.4968 14.09 27.0048C14.09 30.5128 14.105 30.9518 14.168 32.3298C14.1893 33.4012 14.3922 34.4613 14.768 35.4648C15.0996 36.3229 15.6069 37.1021 16.2573 37.7525C16.9077 38.403 17.687 38.9102 18.545 39.2418C19.5485 39.6176 20.6086 39.8205 21.68 39.8418C23.057 39.9048 23.497 39.9198 27.005 39.9198C30.513 39.9198 30.952 39.9048 32.33 39.8418C33.4014 39.8205 34.4614 39.6176 35.465 39.2418C36.323 38.9102 37.1022 38.403 37.7526 37.7525C38.4031 37.1021 38.9104 36.3229 39.242 35.4648C39.6178 34.4613 39.8206 33.4012 39.842 32.3298C39.905 30.9528 39.92 30.5128 39.92 27.0048C39.92 23.4968 39.905 23.0578 39.842 21.6798C39.8206 20.6084 39.6178 19.5484 39.242 18.5448C38.9104 17.6868 38.4031 16.9076 37.7526 16.2572C37.1022 15.6067 36.323 15.0994 35.465 14.7678C34.4614 14.3921 33.4014 14.1892 32.33 14.1678C30.952 14.1048 30.512 14.0898 27.005 14.0898Z" fill="white"/>
</g>
</g>
<g id="Group_3">
<path id="Path 79267" d="M27.0059 20.373C25.6942 20.373 24.412 20.762 23.3214 21.4907C22.2307 22.2195 21.3807 23.2553 20.8787 24.4671C20.3768 25.6789 20.2454 27.0124 20.5013 28.2989C20.7572 29.5854 21.3889 30.7671 22.3164 31.6946C23.2439 32.6221 24.4256 33.2537 25.7121 33.5096C26.9985 33.7655 28.332 33.6342 29.5439 33.1322C30.7557 32.6303 31.7915 31.7802 32.5202 30.6896C33.2489 29.599 33.6379 28.3167 33.6379 27.005C33.6379 25.2461 32.9392 23.5593 31.6954 22.3155C30.4517 21.0718 28.7648 20.373 27.0059 20.373ZM27.0059 31.31C26.1554 31.31 25.3241 31.0579 24.617 30.5854C23.9098 30.1129 23.3587 29.4413 23.0332 28.6556C22.7078 27.8699 22.6226 27.0053 22.7885 26.1712C22.9544 25.337 23.364 24.5709 23.9653 23.9695C24.5667 23.3681 25.3329 22.9586 26.167 22.7927C27.0011 22.6268 27.8657 22.7119 28.6514 23.0374C29.4372 23.3628 30.1087 23.914 30.5812 24.6211C31.0537 25.3282 31.3059 26.1596 31.3059 27.01C31.3046 28.1501 30.8511 29.243 30.045 30.0491C29.2389 30.8553 28.1459 31.3087 27.0059 31.31Z" fill="#193D38"/>
<g id="Group_4" filter="url(#filter1_d_1_5137)">
<path id="Path 79267_2" d="M27.0059 20.373C25.6942 20.373 24.412 20.762 23.3214 21.4907C22.2307 22.2195 21.3807 23.2553 20.8787 24.4671C20.3768 25.6789 20.2454 27.0124 20.5013 28.2989C20.7572 29.5854 21.3889 30.7671 22.3164 31.6946C23.2439 32.6221 24.4256 33.2537 25.7121 33.5096C26.9985 33.7655 28.332 33.6342 29.5439 33.1322C30.7557 32.6303 31.7915 31.7802 32.5202 30.6896C33.2489 29.599 33.6379 28.3167 33.6379 27.005C33.6379 25.2461 32.9392 23.5593 31.6954 22.3155C30.4517 21.0718 28.7648 20.373 27.0059 20.373ZM27.0059 31.31C26.1554 31.31 25.3241 31.0579 24.617 30.5854C23.9098 30.1129 23.3587 29.4413 23.0332 28.6556C22.7078 27.8699 22.6226 27.0053 22.7885 26.1712C22.9544 25.337 23.364 24.5709 23.9653 23.9695C24.5667 23.3681 25.3329 22.9586 26.167 22.7927C27.0011 22.6268 27.8657 22.7119 28.6514 23.0374C29.4372 23.3628 30.1087 23.914 30.5812 24.6211C31.0537 25.3282 31.3059 26.1596 31.3059 27.01C31.3046 28.1501 30.8511 29.243 30.045 30.0491C29.2389 30.8553 28.1459 31.3087 27.0059 31.31Z" fill="white"/>
</g>
</g>
<g id="Group_5">
<path id="Path 79268" d="M35.449 20.1066C35.449 20.4132 35.3581 20.7129 35.1878 20.9678C35.0175 21.2227 34.7754 21.4213 34.4922 21.5387C34.2089 21.656 33.8973 21.6867 33.5966 21.6269C33.2959 21.5671 33.0198 21.4194 32.803 21.2027C32.5862 20.9859 32.4386 20.7097 32.3788 20.409C32.319 20.1084 32.3497 19.7967 32.467 19.5135C32.5843 19.2303 32.783 18.9882 33.0379 18.8179C33.2928 18.6475 33.5924 18.5566 33.899 18.5566C34.3101 18.5566 34.7043 18.7199 34.995 19.0106C35.2857 19.3013 35.449 19.6956 35.449 20.1066Z" fill="#193D38"/>
<g id="Group_6" filter="url(#filter2_d_1_5137)">
<path id="Path 79268_2" d="M35.45 20.1057C35.45 20.4122 35.3591 20.7119 35.1888 20.9668C35.0184 21.2217 34.7764 21.4204 34.4931 21.5377C34.2099 21.655 33.8983 21.6857 33.5976 21.6259C33.2969 21.5661 33.0207 21.4185 32.804 21.2017C32.5872 20.9849 32.4396 20.7087 32.3798 20.4081C32.32 20.1074 32.3506 19.7957 32.468 19.5125C32.5853 19.2293 32.7839 18.9872 33.0388 18.8169C33.2937 18.6466 33.5934 18.5557 33.9 18.5557C34.3111 18.5557 34.7053 18.719 34.996 19.0096C35.2867 19.3003 35.45 19.6946 35.45 20.1057Z" fill="white"/>
</g>
</g>
</g>
</g>
<defs>
<filter id="filter0_d_1_5137" x="8.08997" y="11.0898" width="37.83" height="37.8301" filterUnits="userSpaceOnUse" color-interpolation-filters="sRGB">
<feFlood flood-opacity="0" result="BackgroundImageFix"/>
<feColorMatrix in="SourceAlpha" type="matrix" values="0 0 0 0 0 0 0 0 0 0 0 0 0 0 0 0 0 0 127 0" result="hardAlpha"/>
<feOffset dy="3"/>
<feGaussianBlur stdDeviation="3"/>
<feColorMatrix type="matrix" values="0 0 0 0 0 0 0 0 0 0 0 0 0 0 0 0 0 0 0.071 0"/>
<feBlend mode="normal" in2="BackgroundImageFix" result="effect1_dropShadow_1_5137"/>
<feBlend mode="normal" in="SourceGraphic" in2="effect1_dropShadow_1_5137" result="shape"/>
</filter>
<filter id="filter1_d_1_5137" x="14.3739" y="17.373" width="25.264" height="25.2637" filterUnits="userSpaceOnUse" color-interpolation-filters="sRGB">
<feFlood flood-opacity="0" result="BackgroundImageFix"/>
<feColorMatrix in="SourceAlpha" type="matrix" values="0 0 0 0 0 0 0 0 0 0 0 0 0 0 0 0 0 0 127 0" result="hardAlpha"/>
<feOffset dy="3"/>
<feGaussianBlur stdDeviation="3"/>
<feColorMatrix type="matrix" values="0 0 0 0 0 0 0 0 0 0 0 0 0 0 0 0 0 0 0.071 0"/>
<feBlend mode="normal" in2="BackgroundImageFix" result="effect1_dropShadow_1_5137"/>
<feBlend mode="normal" in="SourceGraphic" in2="effect1_dropShadow_1_5137" result="shape"/>
</filter>
<filter id="filter2_d_1_5137" x="26.35" y="15.5557" width="15.1" height="15.0996" filterUnits="userSpaceOnUse" color-interpolation-filters="sRGB">
<feFlood flood-opacity="0" result="BackgroundImageFix"/>
<feColorMatrix in="SourceAlpha" type="matrix" values="0 0 0 0 0 0 0 0 0 0 0 0 0 0 0 0 0 0 127 0" result="hardAlpha"/>
<feOffset dy="3"/>
<feGaussianBlur stdDeviation="3"/>
<feColorMatrix type="matrix" values="0 0 0 0 0 0 0 0 0 0 0 0 0 0 0 0 0 0 0.071 0"/>
<feBlend mode="normal" in2="BackgroundImageFix" result="effect1_dropShadow_1_5137"/>
<feBlend mode="normal" in="SourceGraphic" in2="effect1_dropShadow_1_5137" result="shape"/>
</filter>
</defs>
</svg>
