<svg width="64" height="65" viewBox="0 0 64 65" fill="none" xmlns="http://www.w3.org/2000/svg">
<path d="M32 64.04C49.6731 64.04 64 49.7042 64 32.02C64 14.3358 49.6731 0 32 0C14.3269 0 0 14.3358 0 32.02C0 49.7042 14.3269 64.04 32 64.04Z" fill="#FFFF34"/>
<path fill-rule="evenodd" clip-rule="evenodd" d="M21.128 22.9326C20.5435 23.5531 20.0967 24.29 19.8169 25.0951C19.537 25.9003 19.4304 26.7554 19.504 27.6046V37.6296C19.4305 38.4791 19.5374 39.3346 19.8176 40.1399C20.0978 40.9452 20.545 41.6822 21.13 42.3026C22.3831 43.3234 23.9777 43.8289 25.59 43.7166H39.904C41.5163 43.8288 43.1108 43.3233 44.364 42.3026C44.9489 41.6822 45.3961 40.9452 45.6763 40.1399C45.9565 39.3346 46.0634 38.4791 45.99 37.6296V27.6046C46.0634 26.7551 45.9565 25.8997 45.6763 25.0944C45.3961 24.2891 44.9489 23.552 44.364 22.9316C43.1104 21.9121 41.5159 21.4076 39.904 21.5206H25.588C23.9759 21.4078 22.3813 21.9126 21.128 22.9326ZM19.666 21.3586C21.3147 19.9659 23.4328 19.2549 25.588 19.3706H39.904C42.0591 19.2548 44.1773 19.9658 45.826 21.3586C46.629 22.1788 47.2499 23.1591 47.6483 24.2355C48.0467 25.3119 48.2136 26.4603 48.138 27.6056V37.6296C48.2136 38.7749 48.0467 39.9233 47.6483 40.9997C47.2499 42.0762 46.629 43.0565 45.826 43.8766C44.1771 45.2691 42.059 45.9797 39.904 45.8636H25.588C23.4328 45.9795 21.3147 45.2684 19.666 43.8756C18.8631 43.0556 18.2422 42.0755 17.8438 40.9992C17.4454 39.9229 17.2785 38.7748 17.354 37.6296V27.6046C17.2785 26.4595 17.4454 25.3113 17.8438 24.235C18.2422 23.1588 18.8631 22.1786 19.666 21.3586Z" fill="#132E2A"/>
<path fill-rule="evenodd" clip-rule="evenodd" d="M43.293 25.9014C43.3792 26.0131 43.4426 26.1406 43.4796 26.2768C43.5165 26.413 43.5262 26.5551 43.5082 26.6951C43.4902 26.835 43.4448 26.9701 43.3746 27.0925C43.3043 27.2148 43.2107 27.3222 43.099 27.4084L35.155 33.5464C34.4654 34.0793 33.6185 34.3684 32.747 34.3684C31.8754 34.3684 31.0285 34.0793 30.339 33.5464L22.399 27.4084C22.2873 27.3222 22.1938 27.2148 22.1236 27.0924C22.0535 26.9701 22.0082 26.8351 21.9902 26.6952C21.9722 26.5553 21.982 26.4133 22.0189 26.2771C22.0559 26.141 22.1192 26.0135 22.2055 25.9019C22.2917 25.7903 22.399 25.6967 22.5214 25.6266C22.6438 25.5564 22.7787 25.5111 22.9186 25.4931C23.0585 25.4752 23.2006 25.4849 23.3367 25.5219C23.4728 25.5588 23.6003 25.6222 23.712 25.7084L31.656 31.8464C31.9694 32.0886 32.3543 32.22 32.7505 32.22C33.1466 32.22 33.5315 32.0886 33.845 31.8464L41.789 25.7084C42.0142 25.535 42.2989 25.458 42.5808 25.4941C42.8627 25.5303 43.1188 25.6768 43.293 25.9014Z" fill="#132E2A"/>
</svg>
