<svg width="38" height="46" viewBox="0 0 38 46" fill="none" xmlns="http://www.w3.org/2000/svg">
<g id="plant-leaf-forest-foliage-ecology-svgrepo-com">
<path id="Path 79250" d="M19.291 0.689492C19.2674 0.678896 19.243 0.670202 19.218 0.663493C19.1781 0.642915 19.1358 0.627457 19.092 0.617491C19.0587 0.614482 19.0253 0.614482 18.992 0.617491C18.9509 0.614545 18.9096 0.61656 18.869 0.623492C18.829 0.633632 18.7902 0.6477 18.753 0.665492C18.7261 0.673406 18.6997 0.683093 18.674 0.694491C17.802 1.22149 -2.66999 13.8945 0.80601 28.2945C2.84301 36.7185 9.88101 37.8945 13.637 37.8945C14.4428 37.9025 15.2479 37.844 16.044 37.7195C16.1203 37.7053 16.193 37.6762 16.258 37.6339C16.323 37.5916 16.3791 37.5369 16.4229 37.4729C16.4667 37.4089 16.4975 37.3369 16.5135 37.261C16.5295 37.185 16.5303 37.1067 16.516 37.0305C16.4857 36.8772 16.3967 36.7418 16.268 36.653C16.1393 36.5643 15.9811 36.5293 15.827 36.5555C15.363 36.6435 4.50401 38.5295 1.95801 28.0215C-1.09299 15.3685 16.443 3.53449 18.984 1.89749C21.523 3.53449 39.065 15.3685 36.007 28.0185C33.466 38.5305 22.607 36.6505 22.137 36.5505C21.9831 36.5246 21.8251 36.5597 21.6967 36.6484C21.5682 36.7371 21.4794 36.8724 21.449 37.0255C21.4347 37.1017 21.4355 37.18 21.4515 37.256C21.4675 37.3319 21.4983 37.4039 21.5421 37.4679C21.586 37.5319 21.642 37.5866 21.707 37.6289C21.772 37.6712 21.8447 37.7003 21.921 37.7145C22.7171 37.8391 23.5222 37.8976 24.328 37.8895C28.084 37.8895 35.122 36.7175 37.158 28.2895C40.637 13.8955 20.165 1.21849 19.291 0.689492Z" fill="#285F57"/>
<path id="Path 79251" d="M29.943 23.1906C30.0122 23.1393 30.0696 23.0737 30.1112 22.9982C30.1528 22.9228 30.1777 22.8392 30.1842 22.7533C30.1906 22.6674 30.1784 22.5811 30.1485 22.5003C30.1186 22.4194 30.0717 22.346 30.0109 22.285C29.95 22.2239 29.8768 22.1767 29.7961 22.1465C29.7154 22.1163 29.6291 22.1039 29.5431 22.11C29.4572 22.1161 29.3736 22.1407 29.298 22.1821C29.2224 22.2234 29.1565 22.2805 29.105 22.3496L19.58 31.8836V26.6836L27.212 19.0536C27.2819 19.0025 27.3399 18.9369 27.3821 18.8613C27.4243 18.7857 27.4496 18.7019 27.4563 18.6156C27.463 18.5293 27.4509 18.4425 27.421 18.3613C27.391 18.2801 27.3438 18.2063 27.2826 18.1451C27.2214 18.0838 27.1477 18.0365 27.0665 18.0065C26.9853 17.9764 26.8986 17.9642 26.8123 17.9708C26.726 17.9774 26.6421 18.0026 26.5665 18.0447C26.4908 18.0868 26.4251 18.1447 26.374 18.2146L19.58 25.0076V19.8076L23.774 15.6126C23.8442 15.5616 23.9026 15.4961 23.945 15.4204C23.9874 15.3447 24.0129 15.2607 24.0198 15.1742C24.0266 15.0877 24.0146 15.0008 23.9846 14.9194C23.9545 14.838 23.9072 14.764 23.8459 14.7027C23.7845 14.6413 23.7106 14.594 23.6292 14.564C23.5478 14.534 23.4609 14.522 23.3744 14.5288C23.2879 14.5357 23.2039 14.5612 23.1282 14.6036C23.0525 14.646 22.987 14.7044 22.936 14.7746L19.581 18.1296V12.7836C19.5952 12.6977 19.5905 12.6097 19.5673 12.5258C19.544 12.4419 19.5028 12.3641 19.4465 12.2977C19.3902 12.2314 19.3201 12.178 19.2411 12.1414C19.1621 12.1049 19.0761 12.0859 18.989 12.0859C18.902 12.0859 18.8159 12.1049 18.7369 12.1414C18.6579 12.178 18.5878 12.2314 18.5315 12.2977C18.4752 12.3641 18.434 12.4419 18.4107 12.5258C18.3875 12.6097 18.3828 12.6977 18.397 12.7836V18.1306L15.043 14.7756C14.9275 14.6929 14.7864 14.6538 14.6449 14.6653C14.5033 14.6769 14.3704 14.7383 14.2699 14.8386C14.1693 14.9389 14.1076 15.0717 14.0957 15.2132C14.0838 15.3547 14.1226 15.4959 14.205 15.6116L18.39 19.8056V25.0056L11.597 18.2136C11.4814 18.1291 11.3393 18.0888 11.1966 18.0999C11.0538 18.111 10.9197 18.1728 10.8186 18.2741C10.7174 18.3754 10.6557 18.5095 10.6448 18.6523C10.6339 18.7951 10.6744 18.9371 10.759 19.0526L18.39 26.6826V31.8826L8.865 22.3476C8.81374 22.2781 8.74808 22.2204 8.67249 22.1786C8.59691 22.1368 8.51319 22.1118 8.42706 22.1054C8.34093 22.0989 8.25442 22.1111 8.17344 22.1411C8.09246 22.1712 8.01891 22.2183 7.95783 22.2794C7.89676 22.3405 7.8496 22.414 7.81956 22.495C7.78952 22.576 7.77732 22.6625 7.78379 22.7486C7.79026 22.8348 7.81525 22.9185 7.85705 22.9941C7.89885 23.0697 7.95648 23.1353 8.02599 23.1866L18.391 33.5586V45.0836C18.3768 45.1695 18.3815 45.2574 18.4047 45.3413C18.428 45.4252 18.4692 45.5031 18.5255 45.5694C18.5818 45.6358 18.6519 45.6892 18.7309 45.7257C18.8099 45.7623 18.8959 45.7812 18.983 45.7812C19.0701 45.7812 19.1561 45.7623 19.2351 45.7257C19.3141 45.6892 19.3842 45.6358 19.4405 45.5694C19.4968 45.5031 19.538 45.4252 19.5612 45.3413C19.5845 45.2574 19.5892 45.1695 19.575 45.0836V33.5596L29.943 23.1906Z" fill="#285F57"/>
</g>
</svg>
