<svg width="36" height="45" viewBox="0 0 36 45" fill="none" xmlns="http://www.w3.org/2000/svg">
<g id="Group 15728">
<g id="Ellipse 2">
<path id="Vector" d="M18.328 43.895C22.5618 43.895 25.994 34.1343 25.994 22.094C25.994 10.0536 22.5618 0.292969 18.328 0.292969C14.0942 0.292969 10.662 10.0536 10.662 22.094C10.662 34.1343 14.0942 43.895 18.328 43.895Z" stroke="#2B796E" stroke-width="0.5"/>
</g>
<g id="Subtraction 1">
<path id="Vector_2" d="M5.1925 37.4883C4.35909 37.4883 3.62021 37.3724 2.99815 37.1437C2.35911 36.9088 1.836 36.5525 1.44336 36.0845C0.716677 35.2185 0.452707 34.0084 0.658777 32.4878C0.857827 31.0191 1.48475 29.324 2.52213 27.4496C3.55948 25.5753 4.95501 23.6162 6.66997 21.6266C8.44548 19.5668 10.4874 17.5644 12.7389 15.6752C15.9945 12.9434 19.4517 10.6574 22.7367 9.06451C25.9384 7.51202 28.8132 6.69141 31.0504 6.69141C31.884 6.69141 32.6222 6.80735 33.2445 7.03597C33.8837 7.27088 34.407 7.62727 34.7997 8.09521C35.5263 8.96117 35.7902 10.1713 35.5841 11.6918C35.385 13.1606 34.7581 14.8556 33.7207 16.73C32.6833 18.6044 31.2877 20.5636 29.5728 22.5531C27.7973 24.613 25.7554 26.6153 23.5039 28.5046C20.2485 31.2362 16.7914 33.5221 13.5062 35.1151C10.3046 36.6675 7.42981 37.4881 5.1925 37.4883ZM31.0582 7.47701C28.9046 7.47718 26.102 8.29466 22.9534 9.8405C19.7245 11.4258 16.3134 13.6938 13.0889 16.3995C10.8846 18.2491 8.88076 20.2037 7.13307 22.2091C5.44505 24.1461 4.06578 26.0487 3.03357 27.8639C2.00139 29.6792 1.36829 31.3157 1.15188 32.728C0.927827 34.1902 1.16254 35.3467 1.84951 36.1654C2.20937 36.5942 2.68962 36.9207 3.27693 37.1358C3.84898 37.3453 4.52873 37.4515 5.29733 37.4515C7.45106 37.4512 10.2537 36.634 13.4023 35.0882C16.6313 33.5029 20.0424 31.2347 23.2668 28.529C25.4711 26.6794 27.4749 24.7247 29.2226 22.7193C30.9106 20.7824 32.2899 18.8799 33.3221 17.0646C34.3543 15.2494 34.9874 13.6129 35.2038 12.2007C35.4279 10.7386 35.1932 9.58209 34.5062 8.76335C34.1464 8.3346 33.6662 8.00815 33.0789 7.79305C32.5069 7.58354 31.8267 7.47701 31.0582 7.47701Z" fill="#2B796E"/>
</g>
<g id="Subtraction 2">
<path id="Vector_3" d="M5.00972 6.69141C7.24704 6.69164 10.1227 7.51231 13.3243 9.06469C16.6095 10.6576 20.0666 12.9435 23.322 15.6752C25.5735 17.5645 27.6154 19.5668 29.3909 21.6267C31.1058 23.6162 32.5014 25.5754 33.5388 27.4498C34.5762 29.3241 35.2031 31.0192 35.4022 32.4879C35.6083 34.0085 35.3444 35.2186 34.6178 36.0846C34.2251 36.5525 33.7018 36.9089 33.0626 37.1438C32.4403 37.3724 31.7022 37.4884 30.8685 37.4884C28.6313 37.4884 25.7565 36.6677 22.5549 35.1153C19.2698 33.5223 15.8126 31.2364 12.557 28.5046C10.3055 26.6153 8.2636 24.613 6.48808 22.5532C4.77313 20.5636 3.37759 18.6044 2.34025 16.7301C1.30287 14.8558 0.675947 13.1607 0.476896 11.692C0.270819 10.1714 0.534788 8.96125 1.26147 8.09521C1.65412 7.6273 2.17722 7.27093 2.81626 7.03602C3.43832 6.80736 4.17631 6.69141 5.00972 6.69141ZM30.8763 36.7028C31.6448 36.7028 32.325 36.5962 32.897 36.3867C33.4843 36.1716 33.9645 35.8452 34.3243 35.4164C35.0113 34.5977 35.246 33.4412 35.0219 31.9791C34.8055 30.5668 34.1724 28.9304 33.1402 27.1151C32.108 25.2999 30.7287 23.3973 29.0407 21.4604C27.293 19.455 25.2892 17.5004 23.0849 15.6508C19.8605 12.9451 16.4494 10.6769 13.2204 9.09159C10.0718 7.54576 7.26918 6.72854 5.11545 6.72826C4.34685 6.72826 3.66709 6.83449 3.09504 7.04399C2.50774 7.25911 2.02748 7.5856 1.66763 8.01439C0.980658 8.83311 0.745947 9.98962 0.969988 11.4518C1.18641 12.8641 1.81951 14.5006 2.85169 16.3158C3.88389 18.1311 5.26316 20.0337 6.95119 21.9706C8.69887 23.976 10.7027 25.9307 12.907 27.7803C16.1315 30.4859 19.5426 32.754 22.7715 34.3393C25.9201 35.8851 28.7227 36.7026 30.8763 36.7028Z" fill="#2B796E"/>
</g>
<g id="Ellipse 11">
<path id="Vector_4" d="M17.983 39.3586C27.4773 39.3586 35.174 31.6619 35.174 22.1676C35.174 12.6732 27.4773 4.97656 17.983 4.97656C8.48866 4.97656 0.791992 12.6732 0.791992 22.1676C0.791992 31.6619 8.48866 39.3586 17.983 39.3586Z" stroke="#2B796E"/>
</g>
</g>
</svg>
