<svg width="136" height="24" viewBox="0 0 136 24" fill="none" xmlns="http://www.w3.org/2000/svg">
<g id="rating">
<path id="Star 1" d="M12 0L15 8.925L24 9.167L16.854 14.925L19.416 24L12 18.633L4.584 24L7.146 14.925L0 9.167L9 8.925L12 0Z" fill="#FCB901"/>
<path id="Star 2" d="M40 0L43 8.925L52 9.167L44.854 14.925L47.416 24L40 18.633L32.584 24L35.146 14.925L28 9.167L37 8.925L40 0Z" fill="#FCB901"/>
<path id="Star 3" d="M68 0L71 8.925L80 9.167L72.854 14.925L75.416 24L68 18.633L60.584 24L63.146 14.925L56 9.167L65 8.925L68 0Z" fill="#FCB901"/>
<path id="Star 4" d="M96 0L99 8.925L108 9.167L100.854 14.925L103.416 24L96 18.633L88.584 24L91.146 14.925L84 9.167L93 8.925L96 0Z" fill="#FCB901"/>
<path id="Star 5" d="M124 0L127 8.925L136 9.167L128.854 14.925L131.416 24L124 18.633L116.584 24L119.146 14.925L112 9.167L121 8.925L124 0Z" fill="#FCB901"/>
</g>
</svg>
