<svg width="47" height="48" viewBox="0 0 47 48" fill="none" xmlns="http://www.w3.org/2000/svg">
<g id="sun-svgrepo-com">
<path id="Path 79252" fill-rule="evenodd" clip-rule="evenodd" d="M23.4811 12.9491C21.2104 12.9491 18.9906 13.6224 17.1026 14.884C15.2146 16.1455 13.743 17.9386 12.874 20.0365C12.0051 22.1343 11.7777 24.4428 12.2207 26.6699C12.6637 28.897 13.7572 30.9427 15.3628 32.5483C16.9684 34.154 19.0142 35.2475 21.2413 35.6905C23.4684 36.1334 25.7768 35.9061 27.8747 35.0371C29.9726 34.1681 31.7656 32.6966 33.0272 30.8086C34.2887 28.9205 34.9621 26.7008 34.9621 24.4301C34.9621 21.3851 33.7525 18.4649 31.5994 16.3118C29.4463 14.1587 26.526 12.9491 23.4811 12.9491ZM8.1731 24.4301C8.17329 21.4025 9.07126 18.4429 10.7534 15.9257C12.4356 13.4084 14.8265 11.4465 17.6237 10.288C20.4209 9.12955 23.4988 8.82654 26.4682 9.41731C29.4375 10.0081 32.1651 11.4661 34.3058 13.607C36.4466 15.7479 37.9044 18.4755 38.495 21.445C39.0856 24.4144 38.7824 27.4923 37.6237 30.2894C36.4651 33.0865 34.503 35.4772 31.9857 37.1593C29.4683 38.8413 26.5087 39.7391 23.4811 39.7391C21.4707 39.7391 19.4801 39.3431 17.6227 38.5737C15.7654 37.8043 14.0778 36.6767 12.6564 35.2551C11.2349 33.8335 10.1073 32.1458 9.33806 30.2885C8.56882 28.4311 8.17296 26.4404 8.1731 24.4301Z" fill="#285F57" stroke="white"/>
<path id="Path 79253" fill-rule="evenodd" clip-rule="evenodd" d="M25.395 1.46875V7.20975H21.568V1.46875H25.395Z" fill="#285F57" stroke="white"/>
<path id="Path 79254" fill-rule="evenodd" clip-rule="evenodd" d="M46.444 26.3446H40.703V22.5176H46.444V26.3446Z" fill="#285F57" stroke="white"/>
<path id="Path 79255" fill-rule="evenodd" clip-rule="evenodd" d="M41.071 9.5478L37.012 13.6068L34.306 10.9008L38.363 6.8418L41.071 9.5478Z" fill="#285F57" stroke="white"/>
<path id="Path 79256" fill-rule="evenodd" clip-rule="evenodd" d="M38.3631 42.0209L34.3041 37.9619L37.0101 35.2559L41.0711 39.3129L38.3631 42.0209Z" fill="#285F57" stroke="white"/>
<path id="Path 79257" fill-rule="evenodd" clip-rule="evenodd" d="M25.395 41.6523V47.3933H21.568V41.6523H25.395Z" fill="#285F57" stroke="white"/>
<path id="Path 79258" fill-rule="evenodd" clip-rule="evenodd" d="M6.26004 26.3446H0.519043V22.5176H6.26004V26.3446Z" fill="#285F57" stroke="white"/>
<path id="Path 79259" fill-rule="evenodd" clip-rule="evenodd" d="M12.6571 37.9619L8.59809 42.0209L5.89209 39.3129L9.95109 35.2539L12.6571 37.9619Z" fill="#285F57" stroke="white"/>
<path id="Path 79260" fill-rule="evenodd" clip-rule="evenodd" d="M9.95109 13.6068L5.89209 9.5478L8.59809 6.8418L12.6571 10.9008L9.95109 13.6068Z" fill="#285F57" stroke="white"/>
</g>
</svg>
