<svg width="53" height="54" viewBox="0 0 53 54" fill="none" xmlns="http://www.w3.org/2000/svg">
<g id="youtube-round-svgrepo-com">
<path id="Path 79261" d="M22.922 32.0927L31.578 27.0107L22.922 21.9287V32.0927Z" fill="white"/>
<path id="Path 79262" d="M26.444 0.557617C22.9715 0.557355 19.5329 1.24111 16.3247 2.56985C13.1165 3.8986 10.2015 5.84629 7.74605 8.30171C5.29063 10.7571 3.34293 13.6722 2.01419 16.8804C0.685449 20.0886 0.00169052 23.5271 0.0019532 26.9996C0.00169052 30.4721 0.685449 33.9106 2.01419 37.1189C3.34293 40.3271 5.29063 43.2421 7.74605 45.6975C10.2015 48.1529 13.1165 50.1006 16.3247 51.4294C19.5329 52.7581 22.9715 53.4419 26.444 53.4416C29.9164 53.4419 33.355 52.7581 36.5632 51.4294C39.7714 50.1006 42.6864 48.1529 45.1419 45.6975C47.5973 43.2421 49.545 40.3271 50.8737 37.1189C52.2025 33.9106 52.8862 30.4721 52.886 26.9996C52.8862 23.5271 52.2025 20.0886 50.8737 16.8804C49.545 13.6722 47.5973 10.7571 45.1419 8.30171C42.6864 5.84629 39.7714 3.8986 36.5632 2.56985C33.355 1.24111 29.9164 0.557355 26.444 0.557617ZM39.665 31.7306C39.665 36.2856 35.11 36.2856 35.11 36.2856H17.778C13.223 36.2856 13.2229 31.7306 13.2229 31.7306V22.2796C13.2229 17.7246 17.778 17.7246 17.778 17.7246H35.11C39.665 17.7246 39.665 22.2796 39.665 22.2796V31.7306Z" fill="white"/>
</g>
</svg>
